<svg width="23" height="23" viewBox="0 0 23 23" fill="none" xmlns="http://www.w3.org/2000/svg">
<path d="M2.7938 1.42817C3.9467 0.782872 5.41685 0.631672 6.8222 0.988072C7.50665 1.16087 8.0912 1.60502 8.4422 2.21657L9.6545 4.33067C10.0866 5.08437 10.2114 5.97566 10.0029 6.81905C9.79446 7.66244 9.2688 8.39296 8.53535 8.85857L7.46885 9.53627C7.0274 9.81572 6.8654 10.2437 6.96665 10.5825C7.32845 11.7948 8.129 13.1394 9.0092 14.0601C9.2711 14.3355 9.7517 14.4003 10.2215 14.1263L10.8114 13.782C11.1985 13.5564 11.6267 13.4101 12.0709 13.3517C12.5152 13.2932 12.9666 13.3239 13.3989 13.4417C13.8312 13.5596 14.2356 13.7624 14.5887 14.0382C14.9418 14.314 15.2365 14.6574 15.4554 15.0483L16.5422 16.9856C16.8972 17.6201 16.9553 18.3774 16.7042 19.0592C16.2033 20.4132 15.2381 21.5054 14.0514 22.0521C12.8459 22.607 11.4351 22.584 10.158 21.7322C8.13575 20.3849 5.699 18.1169 3.49175 14.3342C1.25615 10.5002 0.693195 7.23722 0.756645 4.80452C0.797145 3.24797 1.62065 2.08427 2.7938 1.42817ZM15.203 0.915172C15.0465 0.828168 14.8619 0.806882 14.6898 0.855998C14.5176 0.905114 14.372 1.02061 14.285 1.17707C14.198 1.33354 14.1767 1.51815 14.2258 1.69031C14.2749 1.86247 14.3904 2.00807 14.5469 2.09507L15.0653 2.38397C16.6848 3.28362 18.0624 4.56199 19.0803 6.10984C20.0983 7.65769 20.7263 9.429 20.9108 11.2724L20.954 11.6976C20.9591 11.7886 20.9826 11.8777 21.023 11.9594C21.0635 12.0411 21.12 12.1137 21.1893 12.173C21.2586 12.2322 21.3392 12.2768 21.4262 12.304C21.5132 12.3313 21.6048 12.3406 21.6955 12.3315C21.7862 12.3224 21.8741 12.295 21.9539 12.2509C22.0338 12.2069 22.1039 12.1472 22.16 12.0753C22.2161 12.0035 22.257 11.921 22.2804 11.8329C22.3038 11.7448 22.309 11.6528 22.2959 11.5626L22.254 11.1387C22.0481 9.07807 21.3461 7.09794 20.2083 5.36763C19.0704 3.63732 17.5304 2.20829 15.72 1.20272L15.203 0.915172ZM13.6208 4.53317C13.713 4.37977 13.8624 4.26928 14.036 4.22599C14.2097 4.1827 14.3935 4.21016 14.5469 4.30232L14.7143 4.40222C15.804 5.05556 16.7389 5.93774 17.4542 6.9878C18.1695 8.03786 18.6483 9.23073 18.8574 10.484L18.9168 10.8444C18.9343 10.9331 18.9339 11.0243 18.9155 11.1128C18.897 11.2012 18.8611 11.2851 18.8096 11.3594C18.7582 11.4337 18.6924 11.4969 18.6161 11.5453C18.5398 11.5936 18.4545 11.6262 18.3654 11.641C18.2763 11.6559 18.1851 11.6526 18.0972 11.6316C18.0093 11.6105 17.9266 11.572 17.8539 11.5183C17.7812 11.4647 17.72 11.397 17.6739 11.3193C17.6279 11.2415 17.5979 11.1554 17.5857 11.0658L17.525 10.7067C17.3485 9.64625 16.9439 8.63674 16.339 7.74798C15.7342 6.85923 14.9435 6.11241 14.0217 5.55917L13.8543 5.45927C13.7783 5.41372 13.7119 5.35363 13.6591 5.28243C13.6063 5.21123 13.568 5.13032 13.5464 5.04432C13.5248 4.95832 13.5204 4.86892 13.5334 4.78121C13.5464 4.69351 13.5766 4.60922 13.6221 4.53317H13.6208Z" fill="white"/>
</svg>
