<svg width="27" height="27" viewBox="0 0 27 27" fill="none" xmlns="http://www.w3.org/2000/svg">
<path d="M14.7016 3.10045C9.20265 2.61935 4.35921 6.69271 3.87811 12.1917C3.39701 17.6907 7.45954 22.5432 12.9585 23.0243C18.4675 23.5063 23.3209 19.4338 23.802 13.9348C24.2831 8.43583 20.2106 3.58242 14.7016 3.10045ZM13.1428 21.0328C8.73963 20.6476 5.48527 16.7692 5.8705 12.366C6.25572 7.96284 10.1341 4.70848 14.5373 5.09371C18.9405 5.47893 22.1948 9.35733 21.8096 13.7605C21.4244 18.1637 17.546 21.418 13.1428 21.0328Z" fill="white"/>
<path d="M14.7739 8.12587L13.2796 7.99513L12.7567 13.9723L17.7122 17.5679L18.5665 16.4079L14.3164 13.3559L14.7739 8.12587Z" fill="white"/>
</svg>
