<svg width="436" height="310" viewBox="0 0 436 310" fill="none" xmlns="http://www.w3.org/2000/svg">
<circle cx="8" cy="8" r="8" fill="#D9D9D9"/>
<circle cx="8" cy="50" r="8" fill="#D9D9D9"/>
<circle cx="8" cy="92" r="8" fill="#D9D9D9"/>
<circle cx="8" cy="134" r="8" fill="#D9D9D9"/>
<circle cx="8" cy="176" r="8" fill="#D9D9D9"/>
<circle cx="8" cy="218" r="8" fill="#D9D9D9"/>
<circle cx="8" cy="260" r="8" fill="#D9D9D9"/>
<circle cx="8" cy="302" r="8" fill="#D9D9D9"/>
<circle cx="50" cy="8" r="8" fill="#D9D9D9"/>
<circle cx="50" cy="50" r="8" fill="#D9D9D9"/>
<circle cx="50" cy="92" r="8" fill="#D9D9D9"/>
<circle cx="50" cy="134" r="8" fill="#D9D9D9"/>
<circle cx="50" cy="176" r="8" fill="#D9D9D9"/>
<circle cx="50" cy="218" r="8" fill="#D9D9D9"/>
<circle cx="50" cy="260" r="8" fill="#D9D9D9"/>
<circle cx="92" cy="8" r="8" fill="#D9D9D9"/>
<circle cx="92" cy="50" r="8" fill="#D9D9D9"/>
<circle cx="92" cy="92" r="8" fill="#D9D9D9"/>
<circle cx="92" cy="134" r="8" fill="#D9D9D9"/>
<circle cx="92" cy="176" r="8" fill="#D9D9D9"/>
<circle cx="92" cy="218" r="8" fill="#D9D9D9"/>
<circle cx="92" cy="260" r="8" fill="#D9D9D9"/>
<circle cx="92" cy="302" r="8" fill="#D9D9D9"/>
<circle cx="50" cy="302" r="8" fill="#D9D9D9"/>
<circle cx="134" cy="8" r="8" fill="#D9D9D9"/>
<circle cx="134" cy="50" r="8" fill="#D9D9D9"/>
<circle cx="134" cy="92" r="8" fill="#D9D9D9"/>
<circle cx="134" cy="134" r="8" fill="#D9D9D9"/>
<circle cx="134" cy="176" r="8" fill="#D9D9D9"/>
<circle cx="134" cy="218" r="8" fill="#D9D9D9"/>
<circle cx="134" cy="260" r="8" fill="#D9D9D9"/>
<circle cx="134" cy="302" r="8" fill="#D9D9D9"/>
<circle cx="176" cy="8" r="8" fill="#D9D9D9"/>
<circle cx="176" cy="50" r="8" fill="#D9D9D9"/>
<circle cx="176" cy="92" r="8" fill="#D9D9D9"/>
<circle cx="176" cy="134" r="8" fill="#D9D9D9"/>
<circle cx="176" cy="176" r="8" fill="#D9D9D9"/>
<circle cx="176" cy="218" r="8" fill="#D9D9D9"/>
<circle cx="176" cy="260" r="8" fill="#D9D9D9"/>
<circle cx="176" cy="302" r="8" fill="#D9D9D9"/>
<circle cx="218" cy="8" r="8" fill="#D9D9D9"/>
<circle cx="218" cy="50" r="8" fill="#D9D9D9"/>
<circle cx="218" cy="92" r="8" fill="#D9D9D9"/>
<circle cx="218" cy="134" r="8" fill="#D9D9D9"/>
<circle cx="218" cy="176" r="8" fill="#D9D9D9"/>
<circle cx="218" cy="218" r="8" fill="#D9D9D9"/>
<circle cx="218" cy="260" r="8" fill="#D9D9D9"/>
<circle cx="218" cy="302" r="8" fill="#D9D9D9"/>
<circle cx="260" cy="8" r="8" fill="#D9D9D9"/>
<circle cx="260" cy="50" r="8" fill="#D9D9D9"/>
<circle cx="260" cy="92" r="8" fill="#D9D9D9"/>
<circle cx="260" cy="134" r="8" fill="#D9D9D9"/>
<circle cx="260" cy="176" r="8" fill="#D9D9D9"/>
<circle cx="260" cy="218" r="8" fill="#D9D9D9"/>
<circle cx="260" cy="260" r="8" fill="#D9D9D9"/>
<circle cx="260" cy="302" r="8" fill="#D9D9D9"/>
<circle cx="302" cy="8" r="8" fill="#D9D9D9"/>
<circle cx="302" cy="50" r="8" fill="#D9D9D9"/>
<circle cx="302" cy="92" r="8" fill="#D9D9D9"/>
<circle cx="302" cy="134" r="8" fill="#D9D9D9"/>
<circle cx="302" cy="176" r="8" fill="#D9D9D9"/>
<circle cx="302" cy="218" r="8" fill="#D9D9D9"/>
<circle cx="302" cy="260" r="8" fill="#D9D9D9"/>
<circle cx="302" cy="302" r="8" fill="#D9D9D9"/>
<circle cx="344" cy="8" r="8" fill="#D9D9D9"/>
<circle cx="344" cy="50" r="8" fill="#D9D9D9"/>
<circle cx="344" cy="92" r="8" fill="#D9D9D9"/>
<circle cx="344" cy="134" r="8" fill="#D9D9D9"/>
<circle cx="344" cy="176" r="8" fill="#D9D9D9"/>
<circle cx="344" cy="260" r="8" fill="#D9D9D9"/>
<circle cx="344" cy="302" r="8" fill="#D9D9D9"/>
<circle cx="386" cy="8" r="8" fill="#D9D9D9"/>
<circle cx="386" cy="50" r="8" fill="#D9D9D9"/>
<circle cx="386" cy="92" r="8" fill="#D9D9D9"/>
<circle cx="386" cy="134" r="8" fill="#D9D9D9"/>
<circle cx="386" cy="176" r="8" fill="#D9D9D9"/>
<circle cx="386" cy="218" r="8" fill="#D9D9D9"/>
<circle cx="344" cy="218" r="8" fill="#D9D9D9"/>
<circle cx="386" cy="260" r="8" fill="#D9D9D9"/>
<circle cx="386" cy="302" r="8" fill="#D9D9D9"/>
<circle cx="428" cy="8" r="8" fill="#D9D9D9"/>
<circle cx="428" cy="50" r="8" fill="#D9D9D9"/>
<circle cx="428" cy="92" r="8" fill="#D9D9D9"/>
<circle cx="428" cy="134" r="8" fill="#D9D9D9"/>
<circle cx="428" cy="176" r="8" fill="#D9D9D9"/>
<circle cx="428" cy="218" r="8" fill="#D9D9D9"/>
<circle cx="428" cy="260" r="8" fill="#D9D9D9"/>
<circle cx="428" cy="302" r="8" fill="#D9D9D9"/>
</svg>
