<svg width="20" height="20" viewBox="0 0 20 20" fill="none" xmlns="http://www.w3.org/2000/svg">
<path d="M3.55099 2.44199C4.40499 1.96399 5.49399 1.85199 6.53499 2.11599C7.04199 2.24399 7.47499 2.57299 7.73499 3.02599L8.63299 4.59199C8.95305 5.15029 9.04549 5.8105 8.89108 6.43523C8.73667 7.05996 8.34729 7.60109 7.80399 7.94599L7.01399 8.44799C6.68699 8.65499 6.56699 8.97199 6.64199 9.22299C6.90999 10.121 7.50299 11.117 8.15499 11.799C8.34899 12.003 8.70499 12.051 9.05299 11.848L9.48999 11.593C9.77673 11.4259 10.0939 11.3175 10.4229 11.2742C10.752 11.2309 11.0864 11.2536 11.4066 11.3409C11.7268 11.4282 12.0264 11.5784 12.288 11.7828C12.5495 11.9871 12.7678 12.2414 12.93 12.531L13.735 13.966C13.998 14.436 14.041 14.997 13.855 15.502C13.484 16.505 12.769 17.314 11.89 17.719C10.997 18.13 9.95199 18.113 9.00599 17.482C7.50799 16.484 5.70299 14.804 4.06799 12.002C2.41199 9.16199 1.99499 6.74499 2.04199 4.94299C2.07199 3.78999 2.68199 2.92799 3.55099 2.44199ZM12.743 2.06199C12.6271 1.99754 12.4903 1.98177 12.3628 2.01816C12.2353 2.05454 12.1274 2.14009 12.063 2.25599C11.9985 2.37189 11.9828 2.50864 12.0192 2.63617C12.0555 2.76369 12.1411 2.87154 12.257 2.93599L12.641 3.14999C13.8406 3.81639 14.861 4.76334 15.6151 5.90989C16.3691 7.05645 16.8343 8.36853 16.971 9.73399L17.003 10.049C17.0068 10.1164 17.0242 10.1824 17.0541 10.2429C17.0841 10.3034 17.126 10.3572 17.1773 10.4011C17.2286 10.445 17.2883 10.478 17.3528 10.4982C17.4172 10.5184 17.4851 10.5253 17.5523 10.5185C17.6194 10.5118 17.6846 10.4915 17.7437 10.4589C17.8028 10.4262 17.8547 10.382 17.8963 10.3288C17.9379 10.2755 17.9682 10.2145 17.9855 10.1492C18.0028 10.0839 18.0067 10.0158 17.997 9.94899L17.966 9.63499C17.8134 8.10858 17.2935 6.64182 16.4506 5.36011C15.6077 4.0784 14.467 3.01986 13.126 2.27499L12.743 2.06199ZM11.571 4.74199C11.6393 4.62836 11.7499 4.54651 11.8786 4.51445C12.0072 4.48238 12.1433 4.50272 12.257 4.57099L12.381 4.64499C13.1882 5.12894 13.8807 5.78241 14.4105 6.56023C14.9404 7.33805 15.2951 8.22167 15.45 9.14999L15.494 9.41699C15.507 9.48265 15.5066 9.55025 15.493 9.61577C15.4793 9.68129 15.4527 9.74341 15.4146 9.79844C15.3765 9.85347 15.3277 9.90029 15.2712 9.93613C15.2147 9.97197 15.1515 9.9961 15.0855 10.0071C15.0195 10.0181 14.9519 10.0157 14.8868 10.0001C14.8218 9.98445 14.7605 9.95593 14.7066 9.9162C14.6528 9.87646 14.6074 9.82632 14.5733 9.76874C14.5392 9.71116 14.517 9.64731 14.508 9.58099L14.463 9.31499C14.3323 8.52945 14.0325 7.78167 13.5845 7.12333C13.1364 6.46499 12.5508 5.9118 11.868 5.50199L11.744 5.42799C11.6876 5.39425 11.6385 5.34974 11.5994 5.297C11.5602 5.24426 11.5319 5.18432 11.5159 5.12062C11.4999 5.05692 11.4966 4.99069 11.5063 4.92572C11.5159 4.86076 11.5382 4.79832 11.572 4.74199L11.571 4.74199Z" fill="white"/>
</svg>
