<svg width="22" height="29" viewBox="0 0 22 29" fill="none" xmlns="http://www.w3.org/2000/svg">
<path d="M11 0.131592C8.08369 0.135032 5.28779 1.29506 3.22564 3.35722C1.16348 5.41937 0.00345217 8.21527 1.17029e-05 11.1316C-0.00348119 13.5148 0.774992 15.8334 2.21601 17.7316C2.21601 17.7316 2.51601 18.1266 2.56501 18.1836L11 28.1316L19.439 18.1786C19.483 18.1256 19.784 17.7316 19.784 17.7316L19.785 17.7286C21.2253 15.8312 22.0034 13.5137 22 11.1316C21.9966 8.21527 20.8365 5.41937 18.7744 3.35722C16.7122 1.29506 13.9163 0.135032 11 0.131592V0.131592ZM11 15.1316C10.2089 15.1316 9.43553 14.897 8.77773 14.4575C8.11993 14.0179 7.60724 13.3932 7.30449 12.6623C7.00174 11.9314 6.92253 11.1272 7.07687 10.3512C7.23121 9.57531 7.61217 8.86257 8.17158 8.30316C8.73099 7.74375 9.44373 7.36279 10.2197 7.20845C10.9956 7.05411 11.7998 7.13332 12.5307 7.43607C13.2616 7.73882 13.8864 8.25151 14.3259 8.90931C14.7654 9.56711 15 10.3405 15 11.1316C14.9987 12.1921 14.5768 13.2087 13.827 13.9586C13.0771 14.7084 12.0605 15.1303 11 15.1316V15.1316Z" fill="white"/>
</svg>
