<svg width="182" height="151" viewBox="0 0 182 151" fill="none" xmlns="http://www.w3.org/2000/svg">
<path d="M55.6859 141.89C57.04 144.689 60.4348 145.891 63.019 144.162C65.8632 142.26 68.4611 140 70.7468 137.433C74.2837 133.461 77.0036 128.831 78.7512 123.808C80.4988 118.785 81.2399 113.466 80.9322 108.157C80.6244 102.847 79.2739 97.6501 76.9577 92.8624C74.6415 88.0747 71.405 83.7901 67.4329 80.2532C63.4608 76.7163 58.831 73.9964 53.8078 72.2488C48.7846 70.5012 43.4663 69.7601 38.1567 70.0678C34.7254 70.2667 31.3411 70.9011 28.084 71.9501C25.1245 72.9033 23.96 76.3112 25.3141 79.1101C26.6681 81.9089 30.0314 83.0211 33.0376 82.2276C34.9211 81.7304 36.854 81.4216 38.8082 81.3083C42.6417 81.0861 46.4814 81.6212 50.1081 82.8829C53.7348 84.1447 57.0775 86.1084 59.9453 88.662C62.8131 91.2156 65.1499 94.3091 66.8222 97.7658C68.4945 101.222 69.4695 104.975 69.6917 108.808C69.9139 112.642 69.3788 116.481 68.1171 120.108C66.8553 123.735 64.8916 127.078 62.338 129.945C61.0363 131.407 59.5943 132.731 58.0355 133.899C55.5474 135.764 54.3319 139.091 55.6859 141.89Z" fill="#EEF5FF"/>
<path d="M92.2479 135.353C94.0533 139.085 98.5797 140.688 102.025 138.383C105.818 135.846 109.282 132.833 112.329 129.411C117.045 124.114 120.671 117.941 123.002 111.244C125.332 104.546 126.32 97.4551 125.91 90.3756C125.499 83.2961 123.699 76.3667 120.61 69.9831C117.522 63.5996 113.207 57.8868 107.911 53.1709C102.614 48.4551 96.4413 44.8286 89.7437 42.4984C83.0461 40.1683 75.9551 39.1802 68.8756 39.5905C64.3005 39.8556 59.7882 40.7014 55.4453 42.1002C51.4994 43.3711 49.9467 47.915 51.7521 51.6468C53.5575 55.3785 58.0418 56.8614 62.0501 55.8034C64.5614 55.1406 67.1387 54.7287 69.7442 54.5777C74.8556 54.2815 79.9752 54.9949 84.8108 56.6773C89.6465 58.3596 94.1034 60.9779 97.9271 64.3827C101.751 67.7875 104.867 71.9121 107.096 76.521C109.326 81.1299 110.626 86.1329 110.922 91.2442C111.219 96.3556 110.505 101.475 108.823 106.311C107.14 111.146 104.522 115.603 101.117 119.427C99.3817 121.376 97.4591 123.141 95.3807 124.699C92.0633 127.185 90.4425 131.621 92.2479 135.353Z" fill="#EEF5FF"/>
<path d="M138.56 123.367C140.883 128.17 146.709 130.233 151.144 127.266C156.024 124.001 160.483 120.123 164.405 115.718C170.474 108.902 175.142 100.957 178.141 92.3368C181.14 83.7167 182.412 74.5904 181.884 65.4788C181.355 56.3672 179.038 47.4489 175.063 39.2329C171.088 31.017 165.534 23.6644 158.718 17.595C151.902 11.5255 143.957 6.85806 135.337 3.85909C126.717 0.860107 117.59 -0.411652 108.479 0.116425C102.591 0.457687 96.7829 1.5463 91.1935 3.34651C86.1149 4.98221 84.1166 10.8304 86.4402 15.6333C88.7638 20.4363 94.5353 22.3448 99.6941 20.9831C102.926 20.13 106.243 19.6 109.597 19.4056C116.175 19.0243 122.764 19.9425 128.988 22.1078C135.212 24.273 140.948 27.6429 145.869 32.025C150.79 36.4071 154.8 41.7156 157.67 47.6474C160.54 53.5792 162.213 60.0182 162.594 66.5967C162.976 73.1752 162.057 79.7644 159.892 85.988C157.727 92.2116 154.357 97.9479 149.975 102.869C147.741 105.378 145.267 107.65 142.592 109.654C138.322 112.854 136.236 118.564 138.56 123.367Z" fill="#EEF5FF"/>
</svg>
