<svg width="23" height="22" viewBox="0 0 23 22" fill="none" xmlns="http://www.w3.org/2000/svg">
<path d="M4.31987 4.079C5.12896 3.52838 6.20405 3.3219 7.2641 3.49416C7.78033 3.57749 8.24035 3.8675 8.53885 4.29611L9.56992 5.77789C9.93742 6.30617 10.087 6.95581 9.98767 7.59162C9.8883 8.22744 9.54756 8.80044 9.03639 9.19138L8.29315 9.76032C7.98543 9.99503 7.89352 10.3213 7.99011 10.5648C8.33536 11.436 9.01291 12.3765 9.72187 12.9991C9.93291 13.1854 10.2917 13.2022 10.6207 12.9697L11.0338 12.6776C11.3049 12.4861 11.6114 12.3505 11.9355 12.2787C12.2595 12.2069 12.5946 12.2003 12.9212 12.2594C13.2478 12.3185 13.5593 12.442 13.8377 12.6227C14.1161 12.8035 14.3557 13.0379 14.5425 13.3122L15.4695 14.6716C15.7725 15.1168 15.8642 15.672 15.7229 16.1912C15.4407 17.2228 14.799 18.091 13.9586 18.5711C13.1048 19.0583 12.0623 19.1325 11.0649 18.5863C9.48565 17.7227 7.5411 16.2064 5.66811 13.5576C3.77089 10.8727 3.14482 8.50124 3.03459 6.702C2.96398 5.55077 3.49653 4.63889 4.31987 4.079ZM13.4438 2.89931C13.3227 2.84521 13.1851 2.84142 13.0612 2.88878C12.9374 2.93613 12.8374 3.03076 12.7833 3.15183C12.7292 3.27291 12.7254 3.41052 12.7727 3.53439C12.8201 3.65826 12.9147 3.75824 13.0358 3.81234L13.437 3.99206C14.6901 4.55137 15.7892 5.40578 16.6403 6.48225C17.4914 7.55873 18.0692 8.82526 18.3243 10.1736L18.3837 10.4846C18.3933 10.5515 18.4164 10.6157 18.4515 10.6733C18.4866 10.731 18.5331 10.781 18.588 10.8202C18.643 10.8594 18.7053 10.8871 18.7713 10.9016C18.8372 10.9161 18.9054 10.9171 18.9718 10.9045C19.0381 10.8919 19.1012 10.866 19.1573 10.8284C19.2133 10.7907 19.2612 10.7421 19.298 10.6855C19.3347 10.6288 19.3596 10.5653 19.3712 10.4988C19.3827 10.4323 19.3807 10.3641 19.3652 10.2984L19.3069 9.98828C19.0219 8.48097 18.3761 7.06511 17.4247 5.86174C16.4734 4.65836 15.2447 3.70327 13.8439 3.07812L13.4438 2.89931ZM12.5098 5.67126C12.568 5.55211 12.671 5.46093 12.7964 5.41777C12.9218 5.37461 13.0591 5.38301 13.1783 5.44112L13.3083 5.50403C14.1546 5.91579 14.9014 6.50642 15.497 7.2351C16.0927 7.96377 16.523 8.81311 16.7582 9.7244L16.8253 9.98655C16.844 10.0508 16.8495 10.1182 16.8416 10.1847C16.8338 10.2511 16.8126 10.3153 16.7795 10.3735C16.7463 10.4316 16.7018 10.4825 16.6486 10.5231C16.5954 10.5638 16.5346 10.5933 16.4698 10.61C16.405 10.6267 16.3375 10.6302 16.2713 10.6203C16.2051 10.6104 16.1416 10.5874 16.0845 10.5525C16.0273 10.5176 15.9778 10.4716 15.9388 10.4172C15.8998 10.3628 15.8721 10.3012 15.8574 10.2359L15.7894 9.9748C15.5907 9.20364 15.2269 8.48483 14.7232 7.86805C14.2195 7.25126 13.5878 6.75122 12.8719 6.40248L12.7419 6.33957C12.6829 6.31086 12.63 6.27081 12.5864 6.22168C12.5429 6.17255 12.5094 6.11532 12.4879 6.05325C12.4664 5.99118 12.4574 5.92549 12.4613 5.85993C12.4653 5.79437 12.4821 5.73023 12.5108 5.67117L12.5098 5.67126Z" fill="white"/>
</svg>
