<svg width="182" height="151" viewBox="0 0 182 151" fill="none" xmlns="http://www.w3.org/2000/svg">
<path d="M126.314 141.89C124.96 144.689 121.565 145.891 118.981 144.162C116.137 142.26 113.539 140 111.253 137.433C107.716 133.461 104.996 128.831 103.249 123.808C101.501 118.785 100.76 113.466 101.068 108.157C101.376 102.847 102.726 97.6501 105.042 92.8624C107.359 88.0747 110.595 83.7901 114.567 80.2532C118.539 76.7163 123.169 73.9964 128.192 72.2488C133.215 70.5012 138.534 69.7601 143.843 70.0678C147.275 70.2667 150.659 70.9011 153.916 71.9501C156.875 72.9033 158.04 76.3112 156.686 79.1101C155.332 81.9089 151.969 83.0211 148.962 82.2276C147.079 81.7304 145.146 81.4216 143.192 81.3083C139.358 81.0861 135.519 81.6212 131.892 82.8829C128.265 84.1447 124.922 86.1084 122.055 88.662C119.187 91.2156 116.85 94.3091 115.178 97.7658C113.506 101.222 112.53 104.975 112.308 108.808C112.086 112.642 112.621 116.481 113.883 120.108C115.145 123.735 117.108 127.078 119.662 129.945C120.964 131.407 122.406 132.731 123.965 133.899C126.453 135.764 127.668 139.091 126.314 141.89Z" fill="#EEF5FF"/>
<path d="M89.7521 135.353C87.9467 139.085 83.4203 140.688 79.9747 138.383C76.1824 135.846 72.7185 132.833 69.6709 129.411C64.9551 124.114 61.3286 117.941 58.9984 111.244C56.6683 104.546 55.6802 97.4551 56.0905 90.3756C56.5008 83.2961 58.3015 76.3667 61.3897 69.9831C64.478 63.5996 68.7934 57.8868 74.0895 53.1709C79.3856 48.4551 85.5587 44.8286 92.2563 42.4984C98.9539 40.1683 106.045 39.1802 113.124 39.5905C117.699 39.8556 122.212 40.7014 126.555 42.1002C130.501 43.3711 132.053 47.915 130.248 51.6468C128.443 55.3785 123.958 56.8614 119.95 55.8034C117.439 55.1406 114.861 54.7287 112.256 54.5777C107.144 54.2815 102.025 54.9949 97.1892 56.6773C92.3535 58.3596 87.8966 60.9779 84.0729 64.3827C80.2492 67.7875 77.1335 71.9121 74.9038 76.521C72.6741 81.1299 71.374 86.1329 71.0777 91.2442C70.7815 96.3556 71.4949 101.475 73.1773 106.311C74.8596 111.146 77.4779 115.603 80.8827 119.427C82.6183 121.376 84.5409 123.141 86.6193 124.699C89.9367 127.185 91.5575 131.621 89.7521 135.353Z" fill="#EEF5FF"/>
<path d="M43.4402 123.367C41.1166 128.17 35.2909 130.233 30.8563 127.266C25.9755 124.001 21.5173 120.123 17.595 115.718C11.5255 108.902 6.85806 100.957 3.85909 92.3368C0.860113 83.7167 -0.411644 74.5904 0.11643 65.4788C0.644503 56.3672 2.96207 47.4489 6.93679 39.2329C10.9115 31.017 16.4656 23.6644 23.2818 17.595C30.0981 11.5255 38.0431 6.85806 46.6632 3.85909C55.2833 0.860107 64.4096 -0.411652 73.5212 0.116425C79.4095 0.457687 85.2171 1.5463 90.8065 3.34651C95.8851 4.98221 97.8834 10.8304 95.5598 15.6333C93.2362 20.4363 87.4647 22.3448 82.3059 20.9831C79.0737 20.13 75.7566 19.6 72.4033 19.4056C65.8248 19.0243 59.2356 19.9425 53.012 22.1078C46.7884 24.273 41.0521 27.6429 36.1308 32.025C31.2096 36.4071 27.1996 41.7156 24.3299 47.6474C21.4601 53.5792 19.7869 60.0182 19.4056 66.5967C19.0243 73.1752 19.9425 79.7644 22.1078 85.988C24.273 92.2116 27.6429 97.9479 32.025 102.869C34.2587 105.378 36.7332 107.65 39.4082 109.654C43.6778 112.854 45.7638 118.564 43.4402 123.367Z" fill="#EEF5FF"/>
</svg>
