<svg width="187" height="118" viewBox="0 0 187 118" fill="none" xmlns="http://www.w3.org/2000/svg">
<circle cx="94.9996" cy="8" r="8" fill="#4BB4FF"/>
<path d="M91.9996 63L94.4996 7.5" stroke="#4BB4FF" stroke-width="3" stroke-linecap="round" stroke-dasharray="4 4"/>
<rect y="67.9644" width="183.166" height="49.8444" rx="10" transform="rotate(-5 0 67.9644)" fill="#4BB4FF"/>
<path d="M49.3015 79.8954C49.2769 79.614 49.4053 79.461 49.6866 79.4364C49.968 79.4117 50.121 79.5401 50.1456 79.8215L50.5371 84.2954C50.5617 84.5768 50.4333 84.7298 50.1519 84.7544C49.8705 84.779 49.7175 84.6506 49.6929 84.3693L49.3015 79.8954ZM47.6105 82.7895C47.3291 82.8141 47.1761 82.6857 47.1515 82.4044C47.1269 82.123 47.2553 81.97 47.5366 81.9454L52.0105 81.554C52.2919 81.5293 52.4449 81.6577 52.4695 81.9391C52.4942 82.2205 52.3658 82.3735 52.0844 82.3981L47.6105 82.7895ZM47.6105 82.7895C47.3291 82.8141 47.1761 82.6857 47.1515 82.4044C47.1269 82.123 47.2553 81.97 47.5366 81.9454L52.0105 81.554C52.2919 81.5293 52.4449 81.6577 52.4695 81.9391C52.4942 82.2205 52.3658 82.3735 52.0844 82.3981L47.6105 82.7895ZM57.7835 77.2091C58.5875 77.1387 59.1971 77.2778 59.6124 77.6263C60.0276 77.9747 60.2701 78.5469 60.3397 79.3428L60.6552 82.9484C60.7209 83.7001 60.5871 84.2769 60.2537 84.6787C59.9199 85.0765 59.3751 85.3084 58.6194 85.3745L57.1241 85.5054C56.4689 85.5627 55.9463 85.4687 55.5562 85.2233C55.1698 84.9736 54.9117 84.5688 54.7817 84.0091C54.7421 83.8343 54.7626 83.6989 54.8433 83.6027C54.924 83.5065 55.0488 83.4511 55.2176 83.4363C55.5231 83.4096 55.7144 83.5589 55.7915 83.8843C55.8633 84.1494 55.9942 84.3263 56.1842 84.415C56.3739 84.4996 56.6576 84.5255 57.0355 84.4924L58.5308 84.3616C59.0092 84.3197 59.3233 84.2072 59.4734 84.0239C59.6271 83.8363 59.6834 83.5074 59.6422 83.0371L59.5546 82.0362C59.2742 82.4414 58.8445 82.6694 58.2657 82.72L57.0115 82.8298C56.2157 82.8994 55.6079 82.7581 55.1882 82.406C54.7686 82.0539 54.5239 81.4799 54.4543 80.684L54.3836 79.876C54.3133 79.0721 54.4544 78.4623 54.8068 78.0467C55.1593 77.6311 55.7335 77.3884 56.5294 77.3188L57.7835 77.2091ZM57.8722 78.222L56.618 78.3317C56.0995 78.3771 55.754 78.5025 55.5816 78.708C55.4132 78.9131 55.3516 79.2729 55.3966 79.7874L55.4673 80.5954C55.5126 81.1139 55.638 81.4594 55.8435 81.6318C56.0526 81.7998 56.4124 81.8615 56.9229 81.8168L58.1771 81.7071C58.6956 81.6617 59.0391 81.5365 59.2074 81.3314C59.3798 81.1259 59.4439 80.77 59.3996 80.2635L59.3268 79.4314C59.2817 78.9169 59.1567 78.5754 58.9516 78.4071C58.7505 78.2383 58.3907 78.1767 57.8722 78.222ZM65.8621 76.5023C66.6661 76.4319 67.2757 76.571 67.691 76.9195C68.1062 77.2679 68.3487 77.8401 68.4183 78.636L68.7338 82.2416C68.7995 82.9933 68.6657 83.5701 68.3323 83.9719C67.9985 84.3697 67.4537 84.6016 66.698 84.6677L65.2027 84.7986C64.5475 84.8559 64.0249 84.7619 63.6348 84.5165C63.2484 84.2668 62.9903 83.8621 62.8603 83.3023C62.8207 83.1276 62.8412 82.9921 62.9219 82.8959C63.0026 82.7998 63.1274 82.7443 63.2962 82.7295C63.6017 82.7028 63.793 82.8521 63.8701 83.1775C63.9419 83.4426 64.0728 83.6195 64.2628 83.7082C64.4525 83.7929 64.7362 83.8187 65.1141 83.7856L66.6094 83.6548C67.0878 83.6129 67.4019 83.5004 67.552 83.3171C67.7057 83.1295 67.762 82.8006 67.7208 82.3303L67.6332 81.3294C67.3528 81.7346 66.9231 81.9626 66.3443 82.0132L65.0901 82.123C64.2942 82.1926 63.6865 82.0514 63.2668 81.6992C62.8472 81.3471 62.6025 80.7731 62.5329 79.9772L62.4622 79.1692C62.3919 78.3653 62.533 77.7555 62.8854 77.3399C63.2379 76.9243 63.8121 76.6816 64.608 76.612L65.8621 76.5023ZM65.9508 77.5152L64.6966 77.625C64.1781 77.6703 63.8326 77.7957 63.6602 78.0012C63.4918 78.2063 63.4302 78.5661 63.4752 79.0806L63.5459 79.8886C63.5912 80.4071 63.7166 80.7526 63.9221 80.925C64.1312 81.093 64.491 81.1547 65.0015 81.11L66.2557 81.0003C66.7742 80.9549 67.1177 80.8297 67.286 80.6246C67.4584 80.4191 67.5225 80.0632 67.4782 79.5567L67.4054 78.7246C67.3603 78.2101 67.2353 77.8687 67.0302 77.7003C66.8291 77.5316 66.4693 77.4699 65.9508 77.5152ZM75.7438 79.5991C76.4522 79.9178 76.8454 80.5234 76.9235 81.4158C76.9931 82.2117 76.8537 82.8173 76.5052 83.2325C76.1568 83.6478 75.5806 83.8906 74.7766 83.961L73.4019 84.0812C72.602 84.1512 71.9924 84.0121 71.5731 83.664C71.1578 83.3156 70.9154 82.7434 70.8457 81.9475C70.7652 81.027 71.0586 80.3533 71.7261 79.9263C71.1606 79.5748 70.8454 79.0272 70.7803 78.2835C70.7153 77.5399 70.85 76.9732 71.1845 76.5834C71.5226 76.1893 72.0676 75.9594 72.8192 75.8936L73.989 75.7913C74.7447 75.7252 75.3212 75.857 75.7187 76.1868C76.1158 76.5125 76.3468 77.0472 76.4119 77.7908C76.4798 78.5666 76.2571 79.1694 75.7438 79.5991ZM72.9079 76.9066C72.4335 76.9481 72.1194 77.0606 71.9653 77.2442C71.8109 77.4238 71.7536 77.7407 71.7933 78.1949C71.8376 78.7014 71.9461 79.0382 72.1187 79.2054C72.2953 79.3722 72.5665 79.4396 72.9323 79.4076L74.308 79.2994C74.6537 79.2691 74.9086 79.1962 75.0727 79.0806C75.2364 78.961 75.3379 78.8022 75.3773 78.6044C75.4163 78.4025 75.4236 78.1608 75.3989 77.8795C75.3592 77.4252 75.2477 77.1231 75.0645 76.9731C74.8849 76.8187 74.5559 76.7624 74.0776 76.8042L72.9079 76.9066ZM74.688 82.948C75.2065 82.9026 75.5502 82.7794 75.7189 82.5783C75.8913 82.3729 75.9552 82.0149 75.9105 81.5044C75.8655 80.9899 75.7404 80.6484 75.5353 80.4801C75.3343 80.3113 74.9744 80.2496 74.4559 80.295L73.0812 80.4153C72.5626 80.4607 72.217 80.5841 72.0442 80.7855C71.8755 80.9866 71.8137 81.3444 71.8587 81.8589C71.9033 82.3694 72.0264 82.711 72.2278 82.8838C72.4329 83.0521 72.7947 83.1136 73.3133 83.0683L74.688 82.948ZM85.2131 85.1744C84.4253 85.2433 83.8287 85.0687 83.4236 84.6505C83.0187 84.2363 82.775 83.5569 82.6924 82.6122L82.2862 77.9695C82.1997 76.9807 82.3189 76.2371 82.6439 75.7388C82.9689 75.2406 83.5253 74.957 84.3132 74.888C84.4298 74.8778 84.5319 74.9114 84.6197 74.9888C84.7112 75.0618 84.762 75.1566 84.7722 75.2732C84.782 75.3857 84.7484 75.4879 84.6714 75.5797C84.5984 75.6711 84.5036 75.722 84.387 75.7322C84.0293 75.7635 83.7513 75.8506 83.5532 75.9934C83.3551 76.1363 83.2228 76.3606 83.1564 76.6661C83.094 76.9713 83.0853 77.3812 83.1303 77.8957L83.5365 82.5384C83.6001 83.266 83.7484 83.7573 83.9814 84.0123C84.2187 84.271 84.6047 84.377 85.1393 84.3302C85.2558 84.32 85.3578 84.3516 85.4453 84.425C85.5371 84.502 85.5881 84.5988 85.5983 84.7154C85.6081 84.8279 85.5745 84.9301 85.4975 85.0219C85.4245 85.1133 85.3297 85.1642 85.2131 85.1744ZM87.9329 82.8099C87.5913 82.8398 87.411 82.6774 87.3921 82.3226C87.35 81.7025 87.3441 81.1724 87.3745 80.7323C87.4045 80.2882 87.4761 79.9032 87.5894 79.5774C87.7023 79.2475 87.8607 78.9521 88.0647 78.6913C88.2724 78.426 88.531 78.1644 88.8406 77.9064C89.0652 77.6964 89.2481 77.4718 89.3892 77.2327C89.5343 76.9931 89.6386 76.7268 89.7021 76.4337C89.7692 76.1362 89.7986 75.8015 89.7904 75.4295L85.9797 75.7629C85.6421 75.7925 85.4585 75.6384 85.429 75.3008C85.3994 74.9631 85.5535 74.7795 85.8911 74.75L90.2203 74.3712C90.558 74.3417 90.7416 74.4957 90.7711 74.8334C90.8214 75.4082 90.8101 75.9276 90.7373 76.3917C90.6682 76.8514 90.5305 77.2685 90.3243 77.643C90.1221 78.0171 89.8484 78.361 89.5032 78.6748C89.2541 78.8829 89.0495 79.0911 88.8895 79.2996C88.7292 79.504 88.6079 79.7374 88.5255 79.9997C88.4428 80.2581 88.393 80.5683 88.376 80.9302C88.3587 81.2882 88.3684 81.7228 88.405 82.234C88.4239 82.5888 88.2666 82.7807 87.9329 82.8099ZM94.4715 82.2379C94.1338 82.2674 93.9502 82.1134 93.9207 81.7757L93.3763 75.5533L93.6367 75.3361L92.4189 76.6942C92.3269 76.7994 92.2254 76.8671 92.1147 76.897C92.0035 76.9229 91.8889 76.8864 91.7709 76.7873C91.5348 76.5893 91.5269 76.3591 91.7469 76.0968L93.2236 74.3636C93.3776 74.18 93.5793 74.0773 93.8285 74.0555C94.1179 74.0302 94.2774 74.1864 94.3069 74.524L94.9336 81.6871C94.9632 82.0247 94.8091 82.2083 94.4715 82.2379ZM96.9072 84.1513C96.7946 84.1611 96.6924 84.1275 96.6006 84.0505C96.5088 83.9735 96.458 83.8787 96.4482 83.7661C96.438 83.6496 96.4714 83.5454 96.5484 83.4536C96.6258 83.3658 96.7208 83.317 96.8333 83.3071C97.3719 83.26 97.7336 83.0886 97.9184 82.793C98.1035 82.5014 98.1642 81.9918 98.1006 81.2642L97.6944 76.6215C97.6494 76.107 97.5676 75.705 97.4492 75.4157C97.3347 75.1259 97.1675 74.9279 96.9476 74.8216C96.7277 74.7153 96.4388 74.6778 96.0811 74.7091C95.9685 74.7189 95.8663 74.6853 95.7746 74.6083C95.6828 74.5313 95.6319 74.4365 95.6221 74.3239C95.6119 74.2073 95.6455 74.1052 95.7229 74.0174C95.7999 73.9256 95.8947 73.8748 96.0072 73.8649C96.7991 73.7956 97.3963 73.9783 97.7989 74.413C98.2055 74.8472 98.452 75.5588 98.5385 76.5476L98.9447 81.1904C99.0274 82.135 98.9053 82.8464 98.5785 83.3246C98.2562 83.8064 97.699 84.082 96.9072 84.1513ZM109.243 80.9455L104.733 81.3401C104.388 81.3703 104.2 81.2166 104.171 80.879C104.123 80.3403 104.168 79.8747 104.304 79.4821C104.443 79.0851 104.634 78.7444 104.876 78.4599C105.122 78.171 105.388 77.9229 105.674 77.7157C105.959 77.5044 106.224 77.3131 106.468 77.1419C106.892 76.8496 107.245 76.598 107.526 76.3871C107.812 76.1758 108.02 75.9672 108.152 75.7612C108.284 75.5553 108.338 75.3136 108.313 75.0363C108.271 74.5579 108.157 74.2439 107.97 74.0942C107.786 73.9402 107.459 73.8837 106.989 73.9249L105.698 74.0378C105.321 74.0708 105.046 74.1455 104.874 74.2618C104.701 74.3781 104.603 74.5751 104.579 74.8526C104.565 75.0159 104.521 75.1432 104.448 75.2347C104.375 75.3261 104.256 75.3791 104.092 75.3935C103.923 75.4082 103.79 75.3753 103.694 75.2946C103.598 75.2099 103.55 75.0804 103.551 74.9061C103.586 74.332 103.772 73.8904 104.109 73.5814C104.446 73.2684 104.947 73.0828 105.61 73.0248L106.9 72.9119C107.656 72.8458 108.233 72.9796 108.63 73.3134C109.028 73.6472 109.26 74.192 109.326 74.9477C109.368 75.43 109.285 75.8444 109.077 76.1907C108.868 76.533 108.581 76.8457 108.217 77.1287C107.852 77.4076 107.46 77.6911 107.04 77.979C106.734 78.192 106.445 78.4036 106.172 78.6139C105.903 78.8237 105.676 79.0602 105.493 79.3234C105.313 79.5862 105.207 79.9053 105.175 80.2807L109.155 79.9325C109.492 79.903 109.676 80.0571 109.706 80.3947C109.735 80.7324 109.581 80.916 109.243 80.9455ZM113.364 80.585C112.66 80.6466 112.103 80.5475 111.691 80.2878C111.283 80.0238 111.012 79.5878 110.878 78.9798C110.847 78.8124 110.872 78.6786 110.952 78.5784C111.033 78.4782 111.157 78.4207 111.326 78.4059C111.635 78.3789 111.823 78.5326 111.889 78.8671C111.973 79.1757 112.118 79.3796 112.325 79.479C112.532 79.5783 112.849 79.6094 113.275 79.5721L114.65 79.4518C115.168 79.4064 115.512 79.2832 115.681 79.0821C115.853 78.8767 115.917 78.5187 115.872 78.0082C115.828 77.5017 115.703 77.1623 115.498 76.9899C115.296 76.8171 114.936 76.7535 114.418 76.7988L113.489 76.8801C113.151 76.9096 112.968 76.7555 112.938 76.4179C112.909 76.0802 113.063 75.8966 113.4 75.8671L114.787 75.7458C115.04 75.7236 115.207 75.5956 115.288 75.3617C115.373 75.1234 115.398 74.8093 115.364 74.4194C115.322 73.9411 115.207 73.6271 115.02 73.4774C114.837 73.3233 114.51 73.2669 114.039 73.308L112.87 73.4104C112.492 73.4434 112.217 73.5181 112.045 73.6344C111.873 73.7508 111.774 73.9477 111.75 74.2252C111.731 74.5591 111.568 74.7394 111.263 74.7661C111.094 74.7809 110.961 74.7479 110.865 74.6672C110.769 74.5825 110.725 74.4526 110.734 74.2777C110.765 73.7039 110.949 73.2625 111.286 72.9535C111.628 72.6401 112.126 72.4547 112.781 72.3974L113.951 72.2951C114.706 72.229 115.283 72.3628 115.681 72.6966C116.079 73.0304 116.311 73.5751 116.377 74.3308C116.442 75.0745 116.279 75.6193 115.888 75.9654C116.181 76.122 116.409 76.3614 116.57 76.6834C116.736 77.0051 116.841 77.4171 116.885 77.9196C116.955 78.7155 116.815 79.3211 116.467 79.7363C116.118 80.1516 115.542 80.3944 114.738 80.4648L113.364 80.585ZM121.254 79.8947C120.55 79.9563 119.993 79.8572 119.581 79.5975C119.173 79.3335 118.902 78.8975 118.768 78.2895C118.737 78.1221 118.762 77.9883 118.842 77.8881C118.923 77.7879 119.047 77.7304 119.216 77.7156C119.526 77.6886 119.713 77.8423 119.779 78.1768C119.863 78.4854 120.008 78.6893 120.215 78.7887C120.422 78.888 120.739 78.9191 121.165 78.8818L122.54 78.7615C123.058 78.7161 123.402 78.5929 123.571 78.3918C123.743 78.1864 123.807 77.8284 123.762 77.3179C123.718 76.8114 123.593 76.472 123.388 76.2996C123.186 76.1268 122.826 76.0632 122.308 76.1085L121.379 76.1898C121.042 76.2193 120.858 76.0652 120.828 75.7276C120.799 75.3899 120.953 75.2063 121.291 75.1768L122.677 75.0555C122.931 75.0333 123.098 74.9053 123.178 74.6714C123.263 74.4331 123.288 74.119 123.254 73.7291C123.212 73.2508 123.098 72.9368 122.91 72.7871C122.727 72.633 122.4 72.5766 121.929 72.6177L120.76 72.7201C120.382 72.7531 120.107 72.8278 119.935 72.9441C119.763 73.0605 119.665 73.2574 119.64 73.5349C119.621 73.8688 119.458 74.0491 119.153 74.0758C118.984 74.0906 118.852 74.0576 118.755 73.9769C118.659 73.8922 118.615 73.7623 118.624 73.5874C118.655 73.0136 118.839 72.5722 119.177 72.2632C119.518 71.9498 120.016 71.7644 120.671 71.7071L121.841 71.6048C122.597 71.5387 123.173 71.6725 123.571 72.0063C123.969 72.3401 124.201 72.8848 124.267 73.6405C124.332 74.3842 124.169 74.929 123.778 75.2751C124.071 75.4317 124.299 75.6711 124.461 75.9931C124.626 76.3148 124.731 76.7268 124.775 77.2293C124.845 78.0252 124.706 78.6308 124.357 79.046C124.009 79.4613 123.432 79.7041 122.628 79.7745L121.254 79.8947ZM133.598 78.8026C132.678 78.8831 131.977 78.7237 131.497 78.3242C131.02 77.9204 130.741 77.2582 130.661 76.3377L130.417 73.5521C130.336 72.6235 130.495 71.921 130.895 71.4445C131.299 70.9677 131.961 70.6951 132.883 70.6266L133.606 70.5633C134.531 70.4824 135.231 70.6419 135.708 71.0417C136.184 71.4375 136.463 72.0996 136.544 73.0282L136.787 75.8017C136.867 76.7222 136.708 77.4227 136.308 77.9032C135.908 78.3797 135.246 78.6584 134.322 78.7393L133.598 78.8026ZM133.51 77.7896L134.233 77.7263C134.663 77.6887 134.996 77.6069 135.232 77.4809C135.468 77.355 135.626 77.165 135.705 76.911C135.788 76.6567 135.811 76.3165 135.774 75.8904L135.531 73.1168C135.493 72.6867 135.412 72.3536 135.286 72.1175C135.164 71.8811 134.976 71.7234 134.722 71.6444C134.467 71.5613 134.125 71.5386 133.695 71.5762L132.971 71.6395C132.545 71.6688 132.213 71.7444 131.977 71.8663C131.74 71.9842 131.58 72.1724 131.497 72.4307C131.414 72.6851 131.392 73.0293 131.43 73.4634L131.674 76.2491C131.711 76.6752 131.79 77.0064 131.912 77.2428C132.038 77.4789 132.228 77.6384 132.483 77.7215C132.737 77.8045 133.079 77.8273 133.51 77.7896ZM133.509 75.2865C133.188 75.3146 133.013 75.1679 132.985 74.8463L132.958 74.5449C132.931 74.2313 133.078 74.0605 133.4 74.0323L133.689 74.007C133.994 73.9803 134.161 74.1237 134.188 74.4372L134.215 74.7387C134.243 75.0603 134.104 75.2344 133.799 75.2612L133.509 75.2865ZM142.032 69.8383C142.836 69.768 143.445 69.907 143.861 70.2555C144.276 70.6039 144.518 71.1761 144.588 71.972L144.903 75.5777C144.969 76.3293 144.835 76.9061 144.502 77.3079C144.168 77.7057 143.623 77.9376 142.868 78.0038L141.372 78.1346C140.717 78.1919 140.195 78.0979 139.804 77.8525C139.418 77.6028 139.16 77.1981 139.03 76.6383C138.99 76.4636 139.011 76.3281 139.092 76.232C139.172 76.1358 139.297 76.0803 139.466 76.0655C139.771 76.0388 139.963 76.1881 140.04 76.5135C140.112 76.7786 140.242 76.9555 140.432 77.0442C140.622 77.1289 140.906 77.1547 141.284 77.1216L142.779 76.9908C143.257 76.949 143.572 76.8364 143.722 76.6532C143.875 76.4655 143.932 76.1366 143.89 75.6663L143.803 74.6654C143.522 75.0707 143.093 75.2986 142.514 75.3493L141.26 75.459C140.464 75.5286 139.856 75.3874 139.436 75.0352C139.017 74.6831 138.772 74.1091 138.703 73.3132L138.632 72.5053C138.562 71.7013 138.703 71.0915 139.055 70.6759C139.408 70.2603 139.982 70.0177 140.778 69.948L142.032 69.8383ZM142.12 70.8513L140.866 70.961C140.348 71.0063 140.002 71.1318 139.83 71.3372C139.661 71.5423 139.6 71.9021 139.645 72.4166L139.716 73.2246C139.761 73.7431 139.886 74.0886 140.092 74.261C140.301 74.429 140.661 74.4907 141.171 74.446L142.425 74.3363C142.944 74.2909 143.287 74.1657 143.456 73.9606C143.628 73.7552 143.692 73.3992 143.648 72.8927L143.575 72.0606C143.53 71.5461 143.405 71.2047 143.2 71.0363C142.999 70.8676 142.639 70.8059 142.12 70.8513ZM152.929 77.1235C152.592 77.153 152.408 76.999 152.379 76.6613L151.834 70.4389L152.095 70.2216L150.877 71.5798C150.785 71.685 150.683 71.7526 150.573 71.7826C150.461 71.8085 150.347 71.772 150.229 71.6729C149.993 71.4749 149.985 71.2447 150.205 70.9824L151.682 69.2492C151.836 69.0656 152.037 68.9629 152.286 68.9411C152.576 68.9158 152.735 69.072 152.765 69.4096L153.392 76.5727C153.421 76.9103 153.267 77.0939 152.929 77.1235ZM158.589 68.3897C159.393 68.3194 160.003 68.4584 160.418 68.8069C160.833 69.1553 161.076 69.7275 161.146 70.5234L161.461 74.1291C161.527 74.8807 161.393 75.4575 161.059 75.8593C160.726 76.2571 160.181 76.489 159.425 76.5552L157.93 76.686C157.275 76.7433 156.752 76.6493 156.362 76.4039C155.976 76.1542 155.717 75.7495 155.588 75.1897C155.548 75.015 155.568 74.8795 155.649 74.7833C155.73 74.6872 155.855 74.6317 156.023 74.6169C156.329 74.5902 156.52 74.7395 156.597 75.0649C156.669 75.33 156.8 75.5069 156.99 75.5956C157.18 75.6803 157.463 75.7061 157.841 75.673L159.337 75.5422C159.815 75.5004 160.129 75.3878 160.279 75.2046C160.433 75.0169 160.489 74.688 160.448 74.2177L160.36 73.2168C160.08 73.6221 159.65 73.85 159.072 73.9007L157.817 74.0104C157.021 74.08 156.414 73.9388 155.994 73.5866C155.574 73.2345 155.33 72.6605 155.26 71.8646L155.189 71.0567C155.119 70.2527 155.26 69.6429 155.613 69.2273C155.965 68.8117 156.539 68.5691 157.335 68.4994L158.589 68.3897ZM158.678 69.4027L157.424 69.5124C156.905 69.5577 156.56 69.6832 156.387 69.8886C156.219 70.0937 156.157 70.4535 156.202 70.968L156.273 71.776C156.318 72.2945 156.444 72.64 156.649 72.8124C156.858 72.9804 157.218 73.0421 157.729 72.9974L158.983 72.8877C159.501 72.8423 159.845 72.7171 160.013 72.512C160.186 72.3066 160.25 71.9506 160.205 71.4441L160.133 70.612C160.088 70.0975 159.963 69.7561 159.757 69.5877C159.556 69.419 159.197 69.3573 158.678 69.4027ZM50.5217 93.8421C50.4971 93.5607 50.6254 93.4077 50.9068 93.3831C51.1882 93.3585 51.3412 93.4869 51.3658 93.7682L51.7572 98.2421C51.7818 98.5235 51.6535 98.6765 51.3721 98.7011C51.0907 98.7257 50.9377 98.5974 50.9131 98.316L50.5217 93.8421ZM48.8307 96.7362C48.5493 96.7608 48.3963 96.6325 48.3717 96.3511C48.3471 96.0697 48.4755 95.9167 48.7568 95.8921L53.2307 95.5007C53.5121 95.4761 53.6651 95.6044 53.6897 95.8858C53.7143 96.1672 53.586 96.3202 53.3046 96.3448L48.8307 96.7362ZM48.8307 96.7362C48.5493 96.7608 48.3963 96.6325 48.3717 96.3511C48.3471 96.0697 48.4755 95.9167 48.7568 95.8921L53.2307 95.5007C53.5121 95.4761 53.6651 95.6044 53.6897 95.8858C53.7143 96.1672 53.586 96.3202 53.3046 96.3448L48.8307 96.7362ZM59.0037 91.1558C59.8077 91.0855 60.4173 91.2245 60.8325 91.573C61.2478 91.9214 61.4903 92.4936 61.5599 93.2895L61.8754 96.8952C61.9411 97.6468 61.8073 98.2236 61.4738 98.6254C61.1401 99.0232 60.5953 99.2551 59.8396 99.3213L58.3443 99.4521C57.6891 99.5094 57.1665 99.4154 56.7764 99.17C56.39 98.9203 56.1318 98.5156 56.0019 97.9558C55.9623 97.7811 55.9828 97.6456 56.0635 97.5494C56.1442 97.4533 56.269 97.3978 56.4378 97.383C56.7433 97.3563 56.9346 97.5056 57.0116 97.831C57.0834 98.0961 57.2144 98.273 57.4044 98.3617C57.5941 98.4464 57.8778 98.4722 58.2557 98.4391L59.751 98.3083C60.2293 98.2664 60.5435 98.1539 60.6936 97.9707C60.8473 97.783 60.9035 97.4541 60.8624 96.9838L60.7748 95.9829C60.4944 96.3882 60.0647 96.6161 59.4859 96.6668L58.2317 96.7765C57.4358 96.8461 56.8281 96.7049 56.4084 96.3527C55.9888 96.0006 55.7441 95.4266 55.6745 94.6307L55.6038 93.8228C55.5335 93.0188 55.6745 92.409 56.027 91.9934C56.3795 91.5778 56.9537 91.3351 57.7496 91.2655L59.0037 91.1558ZM59.0923 92.1687L57.8382 92.2785C57.3197 92.3238 56.9742 92.4492 56.8018 92.6547C56.6334 92.8598 56.5717 93.2196 56.6168 93.7341L56.6874 94.5421C56.7328 95.0606 56.8582 95.4061 57.0637 95.5785C57.2728 95.7465 57.6326 95.8082 58.1431 95.7635L59.3972 95.6538C59.9158 95.6084 60.2592 95.4832 60.4276 95.2781C60.6 95.0726 60.6641 94.7167 60.6197 94.2102L60.5469 93.3781C60.5019 92.8636 60.3769 92.5222 60.1718 92.3538C59.9707 92.1851 59.6109 92.1234 59.0923 92.1687ZM67.0823 90.449C67.8862 90.3787 68.4959 90.5177 68.9111 90.8662C69.3264 91.2147 69.5689 91.7868 69.6385 92.5827L69.954 96.1884C70.0197 96.94 69.8859 97.5168 69.5524 97.9186C69.2187 98.3164 68.6739 98.5484 67.9182 98.6145L66.4229 98.7453C65.7677 98.8026 65.2451 98.7086 64.855 98.4632C64.4686 98.2135 64.2104 97.8088 64.0805 97.249C64.0409 97.0743 64.0614 96.9388 64.1421 96.8427C64.2228 96.7465 64.3476 96.691 64.5164 96.6762C64.8219 96.6495 65.0132 96.7989 65.0902 97.1242C65.162 97.3893 65.293 97.5662 65.483 97.6549C65.6727 97.7396 65.9564 97.7654 66.3343 97.7323L67.8296 97.6015C68.3079 97.5597 68.6221 97.4471 68.7722 97.2639C68.9259 97.0763 68.9821 96.7473 68.941 96.277L68.8534 95.2761C68.573 95.6814 68.1433 95.9093 67.5645 95.96L66.3103 96.0697C65.5144 96.1393 64.9067 95.9981 64.487 95.646C64.0674 95.2938 63.8227 94.7198 63.7531 93.9239L63.6824 93.116C63.6121 92.312 63.7531 91.7022 64.1056 91.2866C64.4581 90.871 65.0323 90.6284 65.8282 90.5587L67.0823 90.449ZM67.1709 91.462L65.9168 91.5717C65.3983 91.6171 65.0528 91.7425 64.8804 91.9479C64.712 92.153 64.6503 92.5128 64.6954 93.0273L64.766 93.8353C64.8114 94.3538 64.9368 94.6993 65.1423 94.8717C65.3514 95.0397 65.7112 95.1014 66.2217 95.0567L67.4758 94.947C67.9944 94.9017 68.3378 94.7764 68.5062 94.5713C68.6786 94.3659 68.7426 94.0099 68.6983 93.5034L68.6255 92.6713C68.5805 92.1568 68.4555 91.8154 68.2504 91.647C68.0493 91.4783 67.6895 91.4166 67.1709 91.462ZM76.964 93.5458C77.6724 93.8646 78.0656 94.4701 78.1436 95.3625C78.2133 96.1584 78.0739 96.764 77.7254 97.1793C77.3769 97.5945 76.8007 97.8373 75.9968 97.9077L74.6221 98.028C73.8222 98.0979 73.2126 97.9589 72.7933 97.6108C72.378 97.2623 72.1355 96.6901 72.0659 95.8942C71.9854 94.9737 72.2788 94.3 72.9462 93.873C72.3808 93.5215 72.0656 92.9739 72.0005 92.2303C71.9355 91.4866 72.0702 90.9199 72.4047 90.5302C72.7428 90.136 73.2877 89.9061 74.0394 89.8403L75.2092 89.738C75.9648 89.6719 76.5414 89.8037 76.9389 90.1335C77.3359 90.4592 77.567 90.9939 77.6321 91.7376C77.7 92.5134 77.4773 93.1161 76.964 93.5458ZM74.128 90.8533C73.6537 90.8948 73.3395 91.0073 73.1855 91.1909C73.0311 91.3705 72.9737 91.6874 73.0135 92.1416C73.0578 92.6481 73.1662 92.9849 73.3388 93.1521C73.5154 93.3189 73.7866 93.3863 74.1524 93.3543L75.5282 93.2461C75.8739 93.2159 76.1288 93.1429 76.2928 93.0273C76.4565 92.9077 76.5581 92.7489 76.5975 92.5511C76.6365 92.3492 76.6437 92.1076 76.6191 91.8262C76.5794 91.372 76.4679 91.0698 76.2846 90.9198C76.1051 90.7654 75.7761 90.7091 75.2978 90.751L74.128 90.8533ZM75.9082 96.8947C76.4267 96.8494 76.7704 96.7261 76.9391 96.5251C77.1115 96.3196 77.1754 95.9616 77.1307 95.4511C77.0857 94.9366 76.9606 94.5952 76.7555 94.4268C76.5544 94.2581 76.1946 94.1964 75.6761 94.2417L74.3014 94.362C73.7828 94.4074 73.4372 94.5308 73.2644 94.7322C73.0957 94.9333 73.0338 95.2911 73.0789 95.8056C73.1235 96.3161 73.2466 96.6577 73.448 96.8305C73.6531 96.9989 74.0149 97.0604 74.5335 97.015L75.9082 96.8947ZM86.4333 99.1211C85.6454 99.19 85.0489 99.0154 84.6437 98.5972C84.2389 98.183 83.9952 97.5036 83.9125 96.559L83.5064 91.9163C83.4198 90.9274 83.5391 90.1839 83.8641 89.6856C84.1891 89.1873 84.7455 88.9037 85.5334 88.8347C85.6499 88.8245 85.7521 88.8581 85.8399 88.9355C85.9313 89.0085 85.9822 89.1033 85.9924 89.2199C86.0022 89.3324 85.9686 89.4346 85.8916 89.5264C85.8186 89.6179 85.7238 89.6687 85.6072 89.6789C85.2495 89.7102 84.9715 89.7973 84.7734 89.9402C84.5753 90.0831 84.443 90.3073 84.3766 90.6128C84.3142 90.918 84.3055 91.3279 84.3505 91.8424L84.7567 96.4851C84.8203 97.2127 84.9686 97.704 85.2016 97.959C85.4389 98.2178 85.8248 98.3237 86.3594 98.277C86.476 98.2668 86.578 98.2983 86.6654 98.3717C86.7572 98.4487 86.8082 98.5455 86.8184 98.6621C86.8283 98.7746 86.7947 98.8768 86.7177 98.9686C86.6447 99.0601 86.5499 99.1109 86.4333 99.1211ZM90.7411 88.3791C91.545 88.3088 92.1546 88.4479 92.5699 88.7963C92.9852 89.1448 93.2276 89.717 93.2973 90.5129L93.6127 94.1185C93.6785 94.8702 93.5446 95.4469 93.2112 95.8487C92.8774 96.2465 92.3327 96.4785 91.577 96.5446L90.0816 96.6754C89.4264 96.7327 88.9038 96.6387 88.5138 96.3934C88.1274 96.1436 87.8692 95.7389 87.7392 95.1792C87.6996 95.0044 87.7202 94.869 87.8009 94.7728C87.8816 94.6766 88.0063 94.6211 88.1751 94.6064C88.4806 94.5796 88.6719 94.729 88.749 95.0544C88.8208 95.3195 88.9517 95.4964 89.1417 95.585C89.3314 95.6697 89.6152 95.6955 89.993 95.6625L91.4883 95.5316C91.9667 95.4898 92.2809 95.3772 92.4309 95.194C92.5846 95.0064 92.6409 94.6774 92.5997 94.2071L92.5122 93.2062C92.2317 93.6115 91.802 93.8395 91.2232 93.8901L89.9691 93.9998C89.1732 94.0695 88.5654 93.9282 88.1458 93.5761C87.7261 93.224 87.4815 92.6499 87.4118 91.854L87.3412 91.0461C87.2708 90.2422 87.4119 89.6324 87.7644 89.2167C88.1168 88.8011 88.691 88.5585 89.4869 88.4889L90.7411 88.3791ZM90.8297 89.3921L89.5756 89.5018C89.057 89.5472 88.7115 89.6726 88.5392 89.878C88.3708 90.0831 88.3091 90.443 88.3541 90.9575L88.4248 91.7654C88.4702 92.284 88.5956 92.6294 88.801 92.8018C89.0101 92.9698 89.37 93.0315 89.8805 92.9869L91.1346 92.8771C91.6531 92.8318 91.9966 92.7065 92.165 92.5014C92.3374 92.296 92.4014 91.94 92.3571 91.4335L92.2843 90.6015C92.2393 90.087 92.1142 89.7455 91.9091 89.5771C91.708 89.4084 91.3482 89.3467 90.8297 89.3921ZM98.6295 95.9154C97.709 95.996 97.0085 95.8365 96.528 95.437C96.0512 95.0332 95.7725 94.371 95.6919 93.4505L95.4482 90.6649C95.367 89.7364 95.5263 89.0338 95.9261 88.5574C96.3299 88.0805 96.9926 87.8079 97.9142 87.7394L98.6377 87.6761C99.5622 87.5952 100.263 87.7547 100.739 88.1545C101.215 88.5503 101.494 89.2125 101.575 90.141L101.818 92.9146C101.898 93.8351 101.739 94.5356 101.34 95.0161C100.94 95.4926 100.278 95.7712 99.353 95.8521L98.6295 95.9154ZM98.5409 94.9025L99.2644 94.8392C99.6945 94.8015 100.028 94.7197 100.264 94.5938C100.5 94.4678 100.657 94.2778 100.736 94.0238C100.819 93.7695 100.842 93.4293 100.805 93.0032L100.562 90.2296C100.525 89.7995 100.443 89.4664 100.317 89.2304C100.195 88.994 100.007 88.8363 99.753 88.7572C99.4987 88.6742 99.1564 88.6514 98.7263 88.6891L98.0028 88.7524C97.576 88.7816 97.2444 88.8572 97.008 88.9791C96.7712 89.0971 96.6115 89.2852 96.5288 89.5436C96.4457 89.7979 96.4232 90.1422 96.4612 90.5763L96.7049 93.3619C96.7422 93.788 96.8218 94.1192 96.9437 94.3557C97.0697 94.5917 97.2599 94.7513 97.5142 94.8343C97.7685 94.9174 98.1108 94.9401 98.5409 94.9025ZM98.5406 92.3993C98.219 92.4275 98.0442 92.2807 98.016 91.9592L97.9897 91.6577C97.9622 91.3442 98.1093 91.1733 98.4309 91.1452L98.7203 91.1199C99.0258 91.0931 99.1922 91.2365 99.2197 91.5501L99.2461 91.8515C99.2742 92.1731 99.1355 92.3473 98.83 92.374L98.5406 92.3993ZM103.839 97.5983C103.726 97.6081 103.624 97.5746 103.532 97.4975C103.441 97.4205 103.39 97.3257 103.38 97.2132C103.37 97.0966 103.403 96.9924 103.48 96.9006C103.558 96.8128 103.652 96.764 103.765 96.7542C104.304 96.707 104.665 96.5357 104.85 96.24C105.035 95.9484 105.096 95.4388 105.032 94.7112L104.626 90.0685C104.581 89.554 104.499 89.1521 104.381 88.8627C104.266 88.573 104.099 88.3749 103.879 88.2686C103.659 88.1623 103.371 88.1248 103.013 88.1561C102.9 88.1659 102.798 88.1323 102.706 88.0553C102.614 87.9783 102.564 87.8835 102.554 87.7709C102.544 87.6544 102.577 87.5522 102.655 87.4644C102.732 87.3726 102.826 87.3218 102.939 87.312C103.731 87.2427 104.328 87.4254 104.731 87.86C105.137 88.2943 105.384 89.0058 105.47 89.9947L105.876 94.6374C105.959 95.582 105.837 96.2934 105.51 96.7716C105.188 97.2534 104.631 97.529 103.839 97.5983ZM113.474 94.6289C113.136 94.6584 112.953 94.5043 112.923 94.1667L112.379 87.9442L112.639 87.727L111.421 89.0852C111.329 89.1904 111.228 89.258 111.117 89.288C111.006 89.3139 110.891 89.2773 110.773 89.1783C110.537 88.9802 110.529 88.7501 110.749 88.4878L112.226 86.7546C112.38 86.571 112.582 86.4683 112.831 86.4465C113.12 86.4212 113.28 86.5774 113.309 86.915L113.936 94.0781C113.966 94.4157 113.812 94.5993 113.474 94.6289ZM117.31 94.2932C116.969 94.3231 116.788 94.1607 116.77 93.8059C116.727 93.1858 116.722 92.6557 116.752 92.2156C116.782 91.7715 116.854 91.3865 116.967 91.0606C117.08 90.7308 117.238 90.4354 117.442 90.1745C117.65 89.9093 117.909 89.6477 118.218 89.3897C118.443 89.1797 118.626 88.9551 118.767 88.7159C118.912 88.4764 119.016 88.2101 119.08 87.917C119.147 87.6194 119.176 87.2847 119.168 86.9128L115.357 87.2462C115.02 87.2757 114.836 87.1217 114.806 86.784C114.777 86.4464 114.931 86.2628 115.269 86.2332L119.598 85.8545C119.935 85.825 120.119 85.979 120.149 86.3167C120.199 86.8915 120.188 87.4109 120.115 87.875C120.046 88.3347 119.908 88.7518 119.702 89.1263C119.5 89.5004 119.226 89.8443 118.881 90.158C118.632 90.3662 118.427 90.5744 118.267 90.7828C118.107 90.9872 117.985 91.2206 117.903 91.483C117.82 91.7414 117.77 92.0515 117.754 92.4135C117.736 92.7715 117.746 93.206 117.783 93.7172C117.801 94.072 117.644 94.264 117.31 94.2932ZM124.742 93.643C124.038 93.7046 123.481 93.6055 123.069 93.3458C122.661 93.0818 122.39 92.6458 122.256 92.0378C122.225 91.8704 122.25 91.7366 122.33 91.6364C122.411 91.5362 122.535 91.4787 122.704 91.464C123.014 91.4369 123.201 91.5866 123.266 91.913C123.35 92.2216 123.495 92.4276 123.703 92.531C123.91 92.6343 124.227 92.6674 124.653 92.6301L125.907 92.5204C126.426 92.475 126.769 92.3498 126.938 92.1447C127.11 91.9352 127.173 91.5752 127.129 91.0647L127.056 90.2326C127.011 89.7141 126.885 89.3706 126.68 89.2023C126.475 89.0299 126.115 88.9662 125.6 89.0112L124.708 89.0893C124.113 89.1413 123.689 89.2513 123.437 89.4192C123.322 89.5021 123.217 89.5661 123.119 89.611C123.026 89.6556 122.911 89.6637 122.775 89.6351L122.651 89.6094C122.363 89.5537 122.206 89.377 122.18 89.0796L121.924 86.1613C121.895 85.8237 122.049 85.6401 122.386 85.6105L127.126 85.1959C127.463 85.1664 127.647 85.3204 127.676 85.6581C127.706 85.9957 127.552 86.1793 127.214 86.2088L122.982 86.5792L123.143 88.4242C123.54 88.2436 124.032 88.1277 124.619 88.0763L125.512 87.9982C126.308 87.9286 126.915 88.0699 127.335 88.422C127.755 88.7741 127.999 89.3481 128.069 90.144L128.142 90.9761C128.211 91.772 128.07 92.3798 127.718 92.7994C127.366 93.2191 126.792 93.4637 125.996 93.5333L124.742 93.643ZM135.564 92.6962C135.222 92.7261 135.042 92.5637 135.023 92.2089C134.981 91.5888 134.975 91.0587 135.005 90.6186C135.035 90.1745 135.107 89.7895 135.22 89.4637C135.333 89.1338 135.492 88.8384 135.696 88.5776C135.903 88.3123 136.162 88.0507 136.471 87.7928C136.696 87.5827 136.879 87.3581 137.02 87.119C137.165 86.8794 137.269 86.6131 137.333 86.32C137.4 86.0225 137.43 85.6878 137.421 85.3159L133.611 85.6492C133.273 85.6788 133.089 85.5247 133.06 85.1871C133.03 84.8494 133.184 84.6658 133.522 84.6363L137.851 84.2575C138.189 84.228 138.372 84.382 138.402 84.7197C138.452 85.2945 138.441 85.814 138.368 86.278C138.299 86.7377 138.161 87.1548 137.955 87.5293C137.753 87.9034 137.479 88.2473 137.134 88.5611C136.885 88.7692 136.68 88.9775 136.52 89.1859C136.36 89.3903 136.239 89.6237 136.156 89.886C136.074 90.1444 136.024 90.4546 136.007 90.8166C135.99 91.1745 135.999 91.6091 136.036 92.1203C136.055 92.4751 135.897 92.6671 135.564 92.6962ZM143.911 91.966C143.573 91.9955 143.389 91.8415 143.36 91.5038L142.804 85.015L143.177 84.6908L140.031 89.8387L139.924 89.5929L144.878 89.1351C145.043 89.1207 145.172 89.1581 145.265 89.2471C145.362 89.3359 145.416 89.4526 145.429 89.5973C145.459 89.935 145.304 90.1186 144.967 90.1481L139.528 90.6239C139.191 90.6535 139.007 90.4994 138.977 90.1617C138.963 90.001 139.016 89.8181 139.136 89.6132L142.475 84.1689C142.567 84.0191 142.666 83.9233 142.772 83.8817C142.881 83.8357 143.011 83.8061 143.159 83.7931C143.529 83.7608 143.729 83.9134 143.758 84.2511L144.373 91.4152C144.402 91.7528 144.248 91.9364 143.911 91.966ZM153.708 91.0967C152.787 91.1772 152.087 91.0178 151.606 90.6183C151.129 90.2145 150.851 89.5523 150.77 88.6318L150.526 85.8462C150.445 84.9176 150.604 84.2151 151.004 83.7387C151.408 83.2618 152.071 82.9892 152.992 82.9207L153.716 82.8574C154.64 82.7765 155.341 82.936 155.817 83.3358C156.293 83.7316 156.572 84.3937 156.653 85.3223L156.896 88.0959C156.977 89.0164 156.817 89.7169 156.418 90.1974C156.018 90.6738 155.356 90.9525 154.431 91.0334L153.708 91.0967ZM153.619 90.0838L154.343 90.0205C154.773 89.9828 155.106 89.901 155.342 89.7751C155.578 89.6491 155.735 89.4591 155.814 89.2051C155.897 88.9508 155.92 88.6106 155.883 88.1845L155.64 85.4109C155.603 84.9808 155.521 84.6477 155.395 84.4117C155.273 84.1753 155.085 84.0175 154.831 83.9385C154.577 83.8554 154.235 83.8327 153.804 83.8704L153.081 83.9337C152.654 83.9629 152.323 84.0385 152.086 84.1604C151.849 84.2784 151.69 84.4665 151.607 84.7249C151.524 84.9792 151.501 85.3234 151.539 85.7576L151.783 88.5432C151.82 88.9693 151.9 89.3005 152.022 89.5369C152.148 89.773 152.338 89.9326 152.592 90.0156C152.847 90.0987 153.189 90.1214 153.619 90.0838ZM153.619 87.5806C153.297 87.6087 153.122 87.462 153.094 87.1404L153.068 86.839C153.04 86.5254 153.187 86.3546 153.509 86.3265L153.798 86.3012C154.104 86.2744 154.27 86.4178 154.298 86.7314L154.324 87.0328C154.352 87.3544 154.214 87.5286 153.908 87.5553L153.619 87.5806ZM160.07 90.5522C159.729 90.5821 159.549 90.4196 159.53 90.0648C159.488 89.4448 159.482 88.9147 159.512 88.4746C159.542 88.0304 159.614 87.6455 159.727 87.3196C159.84 86.9898 159.998 86.6944 160.202 86.4335C160.41 86.1683 160.669 85.9067 160.978 85.6487C161.203 85.4387 161.386 85.2141 161.527 84.9749C161.672 84.7354 161.776 84.4691 161.84 84.1759C161.907 83.8784 161.936 83.5437 161.928 83.1718L158.117 83.5052C157.78 83.5347 157.596 83.3807 157.567 83.043C157.537 82.7054 157.691 82.5218 158.029 82.4922L162.358 82.1135C162.696 82.0839 162.879 82.238 162.909 82.5756C162.959 83.1505 162.948 83.6699 162.875 84.134C162.806 84.5937 162.668 85.0108 162.462 85.3852C162.26 85.7594 161.986 86.1033 161.641 86.417C161.392 86.6251 161.187 86.8334 161.027 87.0418C160.867 87.2462 160.745 87.4796 160.663 87.742C160.58 88.0004 160.531 88.3105 160.514 88.6725C160.496 89.0304 160.506 89.465 160.543 89.9762C160.561 90.331 160.404 90.523 160.07 90.5522Z" fill="white"/>
<path d="M18.3199 84.079C19.129 83.5284 20.2041 83.3219 21.2641 83.4942C21.7803 83.5775 22.2404 83.8675 22.5388 84.2961L23.5699 85.7779C23.9374 86.3062 24.0871 86.9558 23.9877 87.5916C23.8883 88.2274 23.5476 88.8004 23.0364 89.1914L22.2932 89.7603C21.9854 89.995 21.8935 90.3213 21.9901 90.5648C22.3354 91.436 23.0129 92.3766 23.7219 92.9991C23.9329 93.1854 24.2917 93.2022 24.6207 92.9697L25.0338 92.6776C25.3049 92.4861 25.6114 92.3505 25.9355 92.2787C26.2595 92.2069 26.5946 92.2003 26.9212 92.2594C27.2478 92.3185 27.5594 92.442 27.8377 92.6227C28.1161 92.8035 28.3557 93.0379 28.5425 93.3122L29.4695 94.6716C29.7725 95.1168 29.8642 95.672 29.7229 96.1913C29.4407 97.2228 28.799 98.091 27.9586 98.5711C27.1048 99.0583 26.0623 99.1325 25.0649 98.5863C23.4857 97.7227 21.5411 96.2064 19.6681 93.5576C17.7709 90.8727 17.1448 88.5012 17.0346 86.702C16.964 85.5508 17.4965 84.6389 18.3199 84.079V84.079ZM27.4438 82.8993C27.3227 82.8452 27.1851 82.8414 27.0612 82.8888C26.9374 82.9361 26.8374 83.0308 26.7833 83.1518C26.7292 83.2729 26.7254 83.4105 26.7727 83.5344C26.8201 83.6583 26.9147 83.7582 27.0358 83.8123L27.437 83.9921C28.6901 84.5514 29.7892 85.4058 30.6403 86.4823C31.4914 87.5587 32.0692 88.8253 32.3243 90.1736L32.3837 90.4846C32.3933 90.5515 32.4164 90.6157 32.4515 90.6733C32.4866 90.731 32.5331 90.781 32.588 90.8202C32.643 90.8594 32.7053 90.8871 32.7713 90.9016C32.8372 90.9161 32.9054 90.9171 32.9718 90.9045C33.0381 90.8919 33.1012 90.866 33.1573 90.8284C33.2133 90.7907 33.2612 90.7421 33.298 90.6855C33.3347 90.6289 33.3596 90.5653 33.3712 90.4988C33.3827 90.4323 33.3807 90.3641 33.3652 90.2984L33.3069 89.9883C33.0219 88.481 32.3761 87.0651 31.4247 85.8617C30.4734 84.6584 29.2447 83.7033 27.8439 83.0781L27.4438 82.8993V82.8993ZM26.5098 85.6713C26.568 85.5521 26.671 85.4609 26.7964 85.4178C26.9218 85.3746 27.0591 85.383 27.1783 85.4411L27.3083 85.504C28.1546 85.9158 28.9014 86.5064 29.497 87.2351C30.0927 87.9638 30.523 88.8131 30.7582 89.7244L30.8253 89.9866C30.844 90.0508 30.8495 90.1182 30.8416 90.1847C30.8338 90.2511 30.8126 90.3153 30.7795 90.3735C30.7463 90.4316 30.7018 90.4825 30.6486 90.5231C30.5954 90.5638 30.5346 90.5933 30.4698 90.61C30.405 90.6267 30.3375 90.6302 30.2713 90.6203C30.2051 90.6105 30.1416 90.5874 30.0845 90.5525C30.0273 90.5176 29.9778 90.4716 29.9388 90.4172C29.8998 90.3628 29.8721 90.3012 29.8574 90.2359L29.7894 89.9748C29.5907 89.2037 29.2269 88.4848 28.7232 87.8681C28.2195 87.2513 27.5878 86.7512 26.8719 86.4025L26.7419 86.3396C26.6829 86.3109 26.63 86.2708 26.5864 86.2217C26.5429 86.1726 26.5094 86.1153 26.4879 86.0533C26.4664 85.9912 26.4574 85.9255 26.4613 85.8599C26.4653 85.7944 26.4821 85.7302 26.5108 85.6712L26.5098 85.6713Z" fill="white"/>
</svg>
