<svg width="274" height="194" viewBox="0 0 274 194" fill="none" xmlns="http://www.w3.org/2000/svg">
<circle cx="126" cy="19" r="8" fill="#FF4B88"/>
<path d="M54 131.5L125.5 18.5" stroke="#FF4B88" stroke-width="3" stroke-linecap="round" stroke-dasharray="4 4"/>
<path d="M173.5 140C173.5 140 149.5 99 142 79.5C134.5 60 125.5 18.5 125.5 18.5" stroke="#FF4B88" stroke-width="3" stroke-linecap="round" stroke-dasharray="4 4"/>
<rect x="4.34423" y="121" width="259.939" height="49.8444" rx="10" transform="rotate(5 4.34423 121)" fill="#FF4B88"/>
<path d="M50.6366 147.891C50.3151 147.862 50.1718 147.647 50.207 147.245L50.7852 140.637C50.8203 140.235 50.9987 140.048 51.3203 140.076L53.5874 140.275C54.6446 140.367 55.3887 140.588 55.8199 140.938C56.2554 141.284 56.4421 141.812 56.3798 142.524C56.3531 142.829 56.2922 143.085 56.1972 143.292C56.1062 143.498 55.9839 143.67 55.8302 143.806C56.1286 144.007 56.3416 144.281 56.4692 144.628C56.5967 144.975 56.6394 145.39 56.5972 145.872L56.5772 146.102C56.5272 146.672 56.3892 147.116 56.163 147.432C55.9369 147.749 55.5904 147.959 55.1235 148.064C54.6566 148.169 54.0373 148.188 53.2655 148.121L50.6366 147.891ZM51.2558 146.924L53.3541 147.108C53.7963 147.146 54.1717 147.161 54.4804 147.151C54.789 147.142 55.0206 147.087 55.1752 146.987C55.3042 146.902 55.3959 146.78 55.4501 146.623C55.5047 146.461 55.5428 146.258 55.5642 146.013L55.5811 145.82C55.604 145.559 55.6005 145.344 55.5707 145.175C55.5412 145.002 55.4661 144.866 55.3452 144.766C55.2217 144.65 55.0367 144.565 54.7903 144.511C54.5479 144.458 54.2217 144.413 53.8117 144.377L51.4964 144.175L51.2558 146.924ZM51.585 143.162L53.3215 143.314C53.8441 143.359 54.2483 143.368 54.5343 143.341C54.8206 143.309 55.0241 143.228 55.145 143.096C55.2662 142.961 55.3384 142.761 55.3616 142.496C55.3844 142.234 55.3478 142.029 55.2515 141.878C55.1593 141.729 54.9748 141.615 54.698 141.538C54.4216 141.457 54.0201 141.394 53.4935 141.348L51.757 141.196L51.585 143.162ZM58.1088 150.756C57.7792 150.727 57.6323 150.508 57.6682 150.098L58.2621 143.308C58.2959 142.922 58.4856 142.745 58.8313 142.775C59.0122 142.791 59.1319 142.858 59.1904 142.976C59.2529 143.095 59.2722 143.291 59.2483 143.565L59.2166 143.927L59.0568 143.67C59.3343 143.414 59.6713 143.243 60.0678 143.156C60.4686 143.066 60.9222 143.043 61.4287 143.087L61.7784 143.118C62.5502 143.185 63.157 143.309 63.5989 143.49C64.0408 143.67 64.346 143.932 64.5145 144.275C64.6833 144.613 64.7437 145.058 64.6955 145.609L64.5847 146.875C64.5365 147.426 64.3997 147.855 64.1743 148.164C63.9492 148.468 63.6054 148.671 63.1429 148.772C62.6844 148.874 62.0753 148.891 61.3155 148.825L58.8193 148.606L58.6811 150.186C58.6452 150.596 58.4545 150.786 58.1088 150.756ZM58.9079 147.594L61.4042 147.812C61.9991 147.864 62.4457 147.875 62.7441 147.844C63.0428 147.809 63.2481 147.708 63.3601 147.54C63.4724 147.367 63.544 147.104 63.5749 146.75L63.6794 145.556C63.7107 145.199 63.6838 144.927 63.5988 144.741C63.5178 144.556 63.329 144.422 63.0325 144.339C62.7403 144.253 62.2927 144.183 61.6898 144.131L61.3401 144.1C60.6125 144.036 60.0649 144.138 59.6972 144.406C59.3339 144.67 59.1249 145.113 59.0704 145.736L58.9079 147.594ZM68.8394 149.483C68.0676 149.416 67.4586 149.293 67.0123 149.117C66.5704 148.936 66.263 148.676 66.0902 148.337C65.9217 147.994 65.8617 147.546 65.9103 146.991L66.021 145.725C66.0696 145.17 66.2064 144.741 66.4315 144.436C66.661 144.128 67.0088 143.926 67.475 143.829C67.9455 143.728 68.5667 143.712 69.3385 143.779L69.6882 143.81C70.4599 143.877 71.0668 144.001 71.5087 144.182C71.9506 144.362 72.2558 144.624 72.4243 144.967C72.5931 145.305 72.6534 145.75 72.6053 146.301L72.5483 146.952L66.977 146.465L66.9264 147.043C66.8954 147.397 66.9203 147.669 67.0009 147.858C67.086 148.044 67.2766 148.18 67.5728 148.267C67.8693 148.349 68.3211 148.417 68.928 148.47L70.7851 148.633C70.9741 148.649 71.1017 148.626 71.1679 148.563C71.2382 148.5 71.2822 148.368 71.2998 148.167C71.3173 147.966 71.3753 147.813 71.4735 147.709C71.5758 147.604 71.7074 147.559 71.8682 147.573C72.0326 147.591 72.1518 147.665 72.2257 147.793C72.2999 147.917 72.3275 148.087 72.3085 148.304C72.2793 148.638 72.2048 148.911 72.085 149.123C71.9655 149.331 71.7966 149.479 71.5785 149.565C71.3643 149.651 71.0985 149.681 70.7809 149.653L68.8394 149.483ZM67.0717 145.452L71.6179 145.85C71.6047 145.492 71.4817 145.255 71.2489 145.137C71.1091 145.068 70.8978 145.007 70.6148 144.954C70.3359 144.901 69.9975 144.858 69.5995 144.823L69.2498 144.792C68.8157 144.754 68.4545 144.739 68.1663 144.746C67.8825 144.749 67.6716 144.776 67.5337 144.824C67.2837 144.904 67.1297 145.113 67.0717 145.452ZM74.2389 150.041C73.9013 150.011 73.7493 149.803 73.7831 149.417L74.1945 144.714C74.229 144.32 74.407 144.138 74.7286 144.166C74.9256 144.183 75.0894 144.301 75.2202 144.519L77.1779 147.837L79.6941 144.91C79.8568 144.718 80.0346 144.63 80.2275 144.647C80.5571 144.676 80.7047 144.887 80.6702 145.281L80.2588 149.984C80.225 150.37 80.0393 150.548 79.7016 150.518C79.364 150.489 79.2131 150.269 79.249 149.859L79.556 146.35L77.488 148.806C77.3978 148.911 77.2703 148.957 77.1055 148.943C77.0291 148.936 76.9538 148.917 76.8795 148.886C76.8093 148.856 76.7549 148.807 76.7163 148.738L75.1062 145.961L74.7992 149.47C74.7633 149.88 74.5766 150.07 74.2389 150.041ZM81.905 150.723C81.487 150.687 81.2927 150.5 81.3223 150.162C81.3518 149.824 81.5756 149.674 81.9937 149.71C82.1384 149.723 82.2768 149.668 82.409 149.546C82.5456 149.421 82.6468 149.282 82.7128 149.129C82.8042 148.919 82.8836 148.751 82.9511 148.628C83.0187 148.504 83.1147 148.379 83.2392 148.252C82.8953 148.108 82.6515 147.909 82.5078 147.653C82.3641 147.398 82.3102 147.065 82.346 146.655C82.3851 146.209 82.5059 145.869 82.7086 145.635C82.9153 145.402 83.2442 145.255 83.6951 145.193C84.1505 145.128 84.768 145.129 85.5478 145.197L87.4049 145.36C87.5496 145.372 87.6618 145.433 87.7415 145.541C87.8214 145.645 87.8542 145.78 87.8398 145.945L87.4241 150.696C87.4111 150.845 87.3525 150.959 87.2483 151.039C87.1478 151.123 87.0191 151.159 86.8623 151.145C86.7217 151.133 86.6073 151.074 86.5193 150.969C86.4349 150.869 86.3989 150.748 86.4112 150.607L86.5726 148.762L85.0532 148.629C84.7597 148.604 84.5329 148.604 84.3726 148.631C84.2123 148.657 84.0847 148.727 83.9897 148.84C83.8988 148.954 83.8064 149.13 83.7126 149.369C83.5456 149.796 83.2911 150.136 82.9489 150.389C82.6107 150.643 82.2628 150.755 81.905 150.723ZM84.9368 147.598L86.6612 147.749L86.7857 146.326L85.0613 146.175C84.6995 146.144 84.3951 146.127 84.1482 146.126C83.9056 146.121 83.7178 146.161 83.5847 146.247C83.456 146.329 83.3819 146.482 83.3622 146.707C83.3404 146.957 83.3872 147.139 83.5027 147.254C83.6181 147.37 83.7956 147.448 84.035 147.489C84.2784 147.531 84.579 147.567 84.9368 147.598ZM93.1435 153.821C92.8139 153.792 92.667 153.573 92.7029 153.163L93.2969 146.373C93.3306 145.988 93.5204 145.81 93.8661 145.84C94.0469 145.856 94.1666 145.923 94.2251 146.042C94.2876 146.16 94.3069 146.357 94.283 146.63L94.2514 146.992L94.0916 146.735C94.3691 146.479 94.706 146.308 95.1025 146.222C95.5033 146.131 95.9569 146.108 96.4634 146.152L96.8131 146.183C97.5849 146.25 98.1918 146.374 98.6337 146.555C99.0756 146.735 99.3808 146.997 99.5493 147.34C99.7181 147.679 99.7784 148.123 99.7302 148.674L99.6195 149.94C99.5713 150.491 99.4345 150.92 99.209 151.229C98.9839 151.533 98.6401 151.736 98.1776 151.837C97.7191 151.939 97.11 151.956 96.3503 151.89L93.8541 151.672L93.7159 153.251C93.68 153.661 93.4892 153.851 93.1435 153.821ZM93.9427 150.659L96.4389 150.877C97.0338 150.929 97.4804 150.94 97.7788 150.909C98.0775 150.875 98.2828 150.773 98.3948 150.605C98.5071 150.432 98.5787 150.169 98.6097 149.815L98.7141 148.622C98.7454 148.264 98.7185 147.992 98.6335 147.806C98.5525 147.621 98.3638 147.487 98.0672 147.404C97.775 147.318 97.3275 147.249 96.7245 147.196L96.3748 147.165C95.6472 147.102 95.0996 147.204 94.7319 147.471C94.3686 147.735 94.1597 148.179 94.1052 148.802L93.9427 150.659ZM105.941 152.814C105.84 152.805 105.761 152.768 105.702 152.702C105.642 152.64 105.605 152.513 105.589 152.322C105.577 152.13 105.589 151.84 105.623 151.45L105.728 151.775C105.444 152.102 105.105 152.318 104.712 152.421C104.322 152.521 103.87 152.548 103.356 152.503L102.234 152.405C101.796 152.366 101.451 152.19 101.199 151.877C100.951 151.559 100.853 151.105 100.905 150.514C100.937 150.145 101.025 149.838 101.168 149.596C101.311 149.349 101.516 149.158 101.783 149.024C102.05 148.885 102.384 148.797 102.784 148.759C103.184 148.721 103.658 148.726 104.204 148.774L106.242 148.952L105.748 149.322L105.826 148.43C105.842 148.253 105.822 148.134 105.766 148.072C105.715 148.011 105.591 147.972 105.394 147.954L103.694 147.806C103.288 147.77 102.975 147.753 102.756 147.754C102.542 147.755 102.389 147.783 102.3 147.836C102.21 147.884 102.157 147.963 102.139 148.071C102.105 148.278 102.053 148.43 101.984 148.525C101.915 148.62 101.78 148.659 101.579 148.641C101.241 148.612 101.092 148.38 101.13 147.946C101.171 147.467 101.401 147.137 101.818 146.955C102.235 146.769 102.862 146.712 103.698 146.785L105.567 146.949C106.082 146.994 106.433 147.148 106.62 147.412C106.808 147.675 106.875 148.108 106.822 148.711L106.51 152.281C106.476 152.667 106.287 152.844 105.941 152.814ZM102.355 151.443L103.44 151.538C104.2 151.605 104.752 151.499 105.096 151.221C105.445 150.94 105.648 150.468 105.706 149.804L105.772 149.883L104.12 149.739C103.589 149.692 103.167 149.681 102.853 149.707C102.543 149.728 102.316 149.805 102.17 149.939C102.029 150.072 101.946 150.281 101.921 150.567C101.899 150.824 101.925 151.031 102 151.187C102.08 151.344 102.198 151.43 102.355 151.443ZM111.155 153.185C110.387 153.118 109.78 152.994 109.334 152.813C108.893 152.629 108.588 152.363 108.42 152.016C108.252 151.67 108.192 151.217 108.241 150.658L108.526 147.402C108.566 146.944 108.679 146.573 108.866 146.29C109.053 146.002 109.321 145.791 109.669 145.655C110.021 145.516 110.464 145.437 110.996 145.419C111.345 145.405 111.766 145.411 112.258 145.438C112.754 145.461 113.273 145.497 113.816 145.544C114.234 145.581 114.428 145.772 114.398 146.117C114.383 146.286 114.314 146.406 114.19 146.476C114.067 146.546 113.896 146.572 113.679 146.553C113.478 146.535 113.295 146.519 113.131 146.505C112.97 146.491 112.819 146.48 112.678 146.471C112.537 146.459 112.396 146.449 112.255 146.44C112.119 146.428 111.974 146.42 111.82 146.414C111.384 146.397 111.001 146.405 110.669 146.441C110.343 146.473 110.082 146.556 109.888 146.689C109.699 146.818 109.592 147.021 109.568 147.299L112.233 147.532C112.94 147.594 113.499 147.716 113.908 147.897C114.322 148.075 114.607 148.335 114.763 148.677C114.924 149.019 114.98 149.461 114.933 150.004L114.822 151.27C114.774 151.821 114.637 152.25 114.411 152.559C114.186 152.863 113.841 153.066 113.374 153.167C112.907 153.268 112.288 153.284 111.517 153.217L111.155 153.185ZM111.243 152.172L111.605 152.204C112.208 152.257 112.661 152.268 112.963 152.238C113.27 152.204 113.479 152.103 113.591 151.934C113.708 151.762 113.781 151.499 113.812 151.145L113.917 149.952C113.948 149.598 113.925 149.329 113.848 149.144C113.771 148.959 113.6 148.824 113.336 148.74C113.072 148.656 112.675 148.591 112.144 148.545L109.467 148.311L109.254 150.747C109.223 151.1 109.248 151.372 109.328 151.561C109.413 151.747 109.602 151.883 109.894 151.969C110.191 152.052 110.64 152.12 111.243 152.172ZM119.077 153.878C118.306 153.811 117.697 153.689 117.25 153.512C116.808 153.332 116.501 153.072 116.328 152.733C116.16 152.39 116.1 151.941 116.148 151.386L116.259 150.12C116.308 149.565 116.444 149.136 116.67 148.831C116.899 148.523 117.247 148.321 117.713 148.224C118.184 148.123 118.805 148.107 119.576 148.174L119.926 148.205C120.698 148.273 121.305 148.397 121.747 148.577C122.189 148.757 122.494 149.019 122.662 149.362C122.831 149.701 122.891 150.145 122.843 150.696L122.733 151.962C122.684 152.513 122.548 152.943 122.322 153.251C122.097 153.555 121.751 153.758 121.285 153.859C120.818 153.96 120.199 153.976 119.427 153.909L119.077 153.878ZM119.166 152.865L119.516 152.896C120.119 152.949 120.571 152.96 120.874 152.93C121.181 152.896 121.39 152.795 121.502 152.626C121.618 152.454 121.692 152.191 121.723 151.838L121.827 150.644C121.858 150.286 121.832 150.014 121.747 149.829C121.666 149.643 121.477 149.509 121.18 149.427C120.888 149.34 120.441 149.271 119.838 149.218L119.488 149.187C118.881 149.134 118.424 149.125 118.117 149.159C117.811 149.189 117.6 149.288 117.484 149.456C117.372 149.624 117.3 149.887 117.269 150.245L117.164 151.439C117.133 151.792 117.158 152.064 117.239 152.253C117.324 152.439 117.515 152.575 117.811 152.662C118.107 152.744 118.559 152.812 119.166 152.865ZM126.236 154.59C125.866 154.557 125.697 154.36 125.729 153.999L126.099 149.766L124.363 149.614C123.969 149.579 123.787 149.393 123.816 149.056C123.846 148.718 124.057 148.566 124.451 148.601L129.046 149.003C129.44 149.037 129.622 149.223 129.592 149.561C129.563 149.899 129.351 150.05 128.957 150.016L127.233 149.865L126.862 154.098C126.848 154.263 126.784 154.389 126.671 154.476C126.558 154.567 126.413 154.605 126.236 154.59ZM130.125 154.845L130.58 149.648C130.615 149.254 130.801 149.071 131.138 149.101C131.476 149.13 131.628 149.342 131.593 149.736L131.44 151.485L134.033 151.712C134.495 151.752 134.879 151.854 135.185 152.019C135.495 152.18 135.723 152.396 135.869 152.668C136.016 152.936 136.073 153.255 136.04 153.625C136.008 153.991 135.897 154.295 135.705 154.537C135.519 154.776 135.258 154.948 134.925 155.052C134.592 155.157 134.194 155.193 133.731 155.16L130.125 154.845ZM131.227 153.921L133.711 154.138C134.037 154.166 134.33 154.152 134.59 154.093C134.855 154.031 134.999 153.866 135.022 153.596C135.042 153.375 135.008 153.206 134.921 153.089C134.838 152.969 134.704 152.882 134.518 152.829C134.337 152.777 134.109 152.739 133.836 152.715L131.351 152.498L131.227 153.921ZM136.686 155.686C136.357 155.657 136.209 155.45 136.243 155.064L136.686 149.999C136.702 149.819 136.758 149.68 136.856 149.583C136.958 149.482 137.087 149.439 137.244 149.453C137.401 149.467 137.519 149.532 137.597 149.648C137.681 149.76 137.715 149.907 137.699 150.088L137.256 155.153C137.222 155.539 137.032 155.717 136.686 155.686ZM139.545 155.596C139.223 155.568 139.076 155.393 139.104 155.072L139.131 154.77C139.158 154.457 139.333 154.314 139.654 154.342L139.944 154.367C140.249 154.394 140.388 154.564 140.361 154.878L140.334 155.179C140.306 155.501 140.139 155.648 139.834 155.621L139.545 155.596ZM139.893 151.617C139.571 151.588 139.424 151.414 139.453 151.092L139.479 150.791C139.506 150.477 139.681 150.334 140.002 150.362L140.292 150.388C140.597 150.415 140.736 150.585 140.709 150.898L140.683 151.2C140.654 151.521 140.488 151.669 140.182 151.642L139.893 151.617ZM148.992 156.496C148.217 156.428 147.608 156.302 147.166 156.117C146.725 155.933 146.418 155.665 146.246 155.314C146.078 154.963 146.02 154.502 146.069 153.931L146.352 150.699C146.401 150.137 146.535 149.697 146.753 149.38C146.971 149.062 147.3 148.848 147.739 148.737C148.178 148.625 148.751 148.6 149.459 148.662L151.376 148.83C151.694 148.858 151.95 148.937 152.145 149.068C152.345 149.194 152.486 149.367 152.568 149.584C152.65 149.802 152.678 150.058 152.653 150.351C152.608 150.858 152.417 151.096 152.08 151.067C151.899 151.051 151.777 150.984 151.715 150.865C151.653 150.742 151.624 150.581 151.629 150.383C151.634 150.193 151.617 150.06 151.579 149.984C151.546 149.904 151.42 149.855 151.203 149.836L149.37 149.675C148.84 149.629 148.435 149.626 148.156 149.666C147.881 149.707 147.687 149.818 147.574 149.998C147.465 150.175 147.395 150.446 147.363 150.812L147.085 153.996C147.052 154.365 147.078 154.649 147.162 154.847C147.246 155.041 147.436 155.183 147.732 155.273C148.028 155.36 148.478 155.43 149.081 155.483L150.697 155.624C150.914 155.643 151.046 155.616 151.093 155.543C151.144 155.471 151.183 155.343 151.211 155.159C151.252 154.931 151.314 154.773 151.399 154.683C151.488 154.589 151.613 154.55 151.774 154.564C151.95 154.583 152.073 154.659 152.143 154.791C152.213 154.918 152.236 155.115 152.213 155.38C152.187 155.673 152.115 155.92 151.996 156.12C151.878 156.317 151.709 156.46 151.491 156.55C151.276 156.641 151.01 156.672 150.693 156.644L148.992 156.496ZM160.255 157.396C159.334 157.315 158.672 157.037 158.268 156.56C157.869 156.079 157.709 155.379 157.79 154.458L158.033 151.673C158.115 150.744 158.393 150.08 158.87 149.68C159.35 149.281 160.05 149.127 160.97 149.22L161.693 149.283C162.618 149.364 163.28 149.643 163.68 150.119C164.08 150.592 164.24 151.292 164.158 152.221L163.916 154.994C163.835 155.915 163.556 156.577 163.08 156.981C162.603 157.381 161.903 157.54 160.978 157.459L160.255 157.396ZM160.343 156.383L161.067 156.446C161.497 156.484 161.839 156.461 162.093 156.378C162.348 156.295 162.536 156.135 162.658 155.899C162.784 155.663 162.865 155.332 162.903 154.906L163.145 152.132C163.183 151.702 163.16 151.36 163.077 151.105C162.998 150.851 162.84 150.663 162.604 150.541C162.368 150.416 162.035 150.334 161.605 150.296L160.881 150.233C160.456 150.187 160.116 150.204 159.862 150.283C159.609 150.358 159.419 150.516 159.292 150.756C159.166 150.992 159.084 151.327 159.046 151.761L158.803 154.547C158.765 154.973 158.786 155.313 158.865 155.567C158.948 155.821 159.108 156.012 159.344 156.137C159.58 156.263 159.913 156.345 160.343 156.383ZM160.778 153.918C160.456 153.89 160.309 153.715 160.337 153.393L160.364 153.092C160.391 152.778 160.566 152.635 160.887 152.664L161.177 152.689C161.482 152.716 161.621 152.886 161.594 153.199L161.567 153.501C161.539 153.822 161.372 153.97 161.067 153.943L160.778 153.918ZM170.117 150.032C170.921 150.103 171.497 150.345 171.845 150.761C172.194 151.176 172.333 151.782 172.264 152.577L171.948 156.183C171.882 156.935 171.65 157.479 171.252 157.817C170.854 158.151 170.278 158.285 169.522 158.219L168.027 158.088C167.371 158.031 166.873 157.847 166.532 157.538C166.194 157.225 166.01 156.781 165.98 156.208C165.971 156.029 166.015 155.899 166.111 155.818C166.207 155.737 166.34 155.705 166.508 155.719C166.814 155.746 166.976 155.926 166.996 156.26C167.02 156.534 167.119 156.731 167.29 156.851C167.462 156.967 167.737 157.042 168.115 157.075L169.611 157.206C170.089 157.248 170.418 157.191 170.597 157.037C170.781 156.879 170.894 156.565 170.935 156.094L171.023 155.094C170.676 155.444 170.213 155.594 169.635 155.543L168.38 155.433C167.584 155.364 167.01 155.119 166.658 154.7C166.306 154.28 166.165 153.672 166.235 152.876L166.305 152.068C166.376 151.264 166.62 150.688 167.04 150.34C167.459 149.992 168.067 149.853 168.863 149.923L170.117 150.032ZM170.028 151.045L168.774 150.935C168.255 150.89 167.893 150.954 167.688 151.126C167.486 151.299 167.363 151.642 167.318 152.157L167.248 152.965C167.202 153.483 167.266 153.845 167.438 154.051C167.615 154.253 167.959 154.376 168.469 154.421L169.723 154.53C170.242 154.576 170.602 154.512 170.803 154.339C171.009 154.167 171.133 153.827 171.178 153.321L171.251 152.489C171.296 151.974 171.232 151.616 171.059 151.415C170.89 151.214 170.547 151.091 170.028 151.045ZM174.308 158.638C173.987 158.609 173.84 158.435 173.868 158.113L173.895 157.812C173.922 157.498 174.097 157.355 174.418 157.383L174.708 157.409C175.013 157.435 175.152 157.606 175.125 157.919L175.098 158.221C175.07 158.542 174.903 158.69 174.598 158.663L174.308 158.638ZM174.657 154.658C174.335 154.63 174.188 154.455 174.216 154.134L174.243 153.832C174.27 153.519 174.445 153.376 174.766 153.404L175.056 153.429C175.361 153.456 175.5 153.626 175.473 153.94L175.446 154.241C175.418 154.563 175.252 154.71 174.946 154.683L174.657 154.658ZM179.827 159.108C178.906 159.028 178.244 158.749 177.84 158.272C177.441 157.792 177.281 157.091 177.362 156.171L177.606 153.385C177.687 152.456 177.966 151.792 178.442 151.392C178.923 150.993 179.623 150.84 180.542 150.932L181.266 150.995C182.19 151.076 182.852 151.355 183.252 151.832C183.652 152.304 183.812 153.004 183.731 153.933L183.488 156.707C183.407 157.627 183.129 158.289 182.652 158.693C182.175 159.093 181.475 159.252 180.55 159.172L179.827 159.108ZM179.915 158.095L180.639 158.159C181.069 158.196 181.411 158.173 181.666 158.09C181.92 158.007 182.108 157.848 182.23 157.611C182.356 157.375 182.438 157.044 182.475 156.618L182.718 153.844C182.755 153.414 182.733 153.072 182.65 152.818C182.57 152.564 182.413 152.376 182.176 152.254C181.94 152.128 181.607 152.046 181.177 152.008L180.454 151.945C180.028 151.9 179.688 151.917 179.434 151.996C179.181 152.071 178.991 152.228 178.865 152.468C178.739 152.704 178.657 153.04 178.619 153.474L178.375 156.259C178.338 156.685 178.359 157.025 178.438 157.279C178.521 157.534 178.68 157.724 178.916 157.85C179.152 157.976 179.485 158.058 179.915 158.095ZM180.35 155.63C180.028 155.602 179.882 155.427 179.91 155.106L179.936 154.804C179.964 154.491 180.138 154.348 180.46 154.376L180.749 154.401C181.055 154.428 181.194 154.598 181.166 154.912L181.14 155.213C181.112 155.535 180.945 155.682 180.639 155.655L180.35 155.63ZM188.07 159.829C187.15 159.749 186.488 159.47 186.084 158.993C185.684 158.513 185.525 157.812 185.605 156.892L185.849 154.106C185.93 153.178 186.209 152.514 186.686 152.114C187.166 151.714 187.866 151.561 188.786 151.653L189.509 151.717C190.434 151.798 191.096 152.076 191.496 152.553C191.896 153.025 192.055 153.726 191.974 154.654L191.731 157.428C191.651 158.348 191.372 159.01 190.895 159.414C190.419 159.814 189.718 159.974 188.794 159.893L188.07 159.829ZM188.159 158.816L188.882 158.88C189.313 158.917 189.655 158.895 189.909 158.812C190.164 158.729 190.352 158.569 190.474 158.332C190.6 158.096 190.681 157.765 190.718 157.339L190.961 154.566C190.999 154.136 190.976 153.793 190.893 153.539C190.814 153.285 190.656 153.097 190.42 152.975C190.184 152.849 189.851 152.767 189.421 152.73L188.697 152.666C188.272 152.621 187.932 152.638 187.678 152.717C187.424 152.792 187.234 152.95 187.108 153.19C186.982 153.426 186.9 153.761 186.862 154.195L186.618 156.98C186.581 157.407 186.602 157.747 186.681 158.001C186.764 158.255 186.924 158.445 187.16 158.571C187.396 158.697 187.729 158.779 188.159 158.816ZM188.593 156.351C188.272 156.323 188.125 156.148 188.153 155.827L188.18 155.525C188.207 155.212 188.382 155.069 188.703 155.097L188.992 155.122C189.298 155.149 189.437 155.319 189.41 155.633L189.383 155.934C189.355 156.256 189.188 156.403 188.883 156.377L188.593 156.351ZM196.866 161.802C196.528 161.772 196.377 161.553 196.413 161.143L196.463 160.576C196.519 159.937 196.844 159.649 197.438 159.713L197.751 159.741L197.187 159.934C198.186 158.661 198.764 157.055 198.921 155.116L202.72 155.449L202.309 160.14L202.635 160.168C203.174 160.215 203.416 160.552 203.361 161.179L203.311 161.746C203.275 162.156 203.088 162.346 202.751 162.317C202.413 162.287 202.262 162.067 202.298 161.657L202.341 161.163L197.47 160.737L197.426 161.231C197.39 161.641 197.204 161.831 196.866 161.802ZM198.517 159.808L201.26 160.048L201.582 156.37L199.93 156.225C199.767 157.535 199.296 158.73 198.517 159.808ZM207.4 161.606C206.629 161.538 206.02 161.416 205.573 161.239C205.131 161.059 204.824 160.799 204.651 160.46C204.483 160.117 204.423 159.668 204.471 159.114L204.582 157.847C204.63 157.293 204.767 156.863 204.992 156.559C205.222 156.251 205.57 156.048 206.036 155.951C206.506 155.851 207.128 155.834 207.899 155.902L208.249 155.932C209.021 156 209.628 156.124 210.07 156.304C210.512 156.485 210.817 156.746 210.985 157.089C211.154 157.428 211.214 157.873 211.166 158.423L211.055 159.69C211.007 160.24 210.87 160.67 210.645 160.978C210.42 161.282 210.074 161.485 209.608 161.586C209.141 161.687 208.522 161.704 207.75 161.636L207.4 161.606ZM207.489 160.593L207.839 160.623C208.442 160.676 208.894 160.687 209.197 160.657C209.503 160.623 209.713 160.522 209.825 160.353C209.941 160.181 210.015 159.918 210.046 159.565L210.15 158.371C210.181 158.013 210.154 157.741 210.069 157.556C209.988 157.37 209.8 157.237 209.503 157.154C209.211 157.068 208.763 156.998 208.16 156.945L207.811 156.915C207.204 156.862 206.747 156.852 206.44 156.886C206.134 156.916 205.923 157.015 205.807 157.183C205.695 157.351 205.623 157.614 205.592 157.972L205.487 159.166C205.456 159.52 205.481 159.791 205.562 159.981C205.647 160.166 205.837 160.302 206.134 160.389C206.43 160.472 206.882 160.54 207.489 160.593ZM218.304 162.487C217.967 162.457 217.813 162.274 217.842 161.936L218.387 155.713L218.681 155.545L217.246 156.671C217.137 156.758 217.025 156.807 216.911 156.818C216.797 156.824 216.69 156.768 216.591 156.65C216.393 156.414 216.425 156.186 216.688 155.966L218.443 154.515C218.626 154.361 218.843 154.295 219.092 154.317C219.382 154.342 219.511 154.524 219.482 154.861L218.855 162.025C218.826 162.362 218.642 162.516 218.304 162.487ZM226.51 158.927C227.152 159.364 227.435 160.029 227.356 160.921C227.287 161.717 227.044 162.289 226.629 162.638C226.214 162.986 225.604 163.125 224.8 163.055L223.426 162.935C222.626 162.865 222.049 162.622 221.697 162.206C221.349 161.791 221.209 161.185 221.279 160.39C221.359 159.469 221.765 158.857 222.497 158.552C222.001 158.108 221.786 157.514 221.851 156.77C221.916 156.026 222.147 155.492 222.544 155.166C222.945 154.836 223.522 154.705 224.274 154.77L225.443 154.873C226.199 154.939 226.744 155.169 227.078 155.563C227.412 155.952 227.547 156.519 227.482 157.263C227.414 158.038 227.09 158.593 226.51 158.927ZM224.185 155.783C223.711 155.742 223.382 155.798 223.198 155.952C223.015 156.102 222.903 156.404 222.864 156.859C222.819 157.365 222.868 157.716 223.008 157.91C223.153 158.105 223.409 158.219 223.775 158.251L225.148 158.383C225.494 158.413 225.758 158.386 225.939 158.3C226.121 158.211 226.249 158.072 226.322 157.884C226.396 157.692 226.445 157.455 226.469 157.174C226.509 156.72 226.452 156.403 226.297 156.223C226.147 156.04 225.833 155.927 225.355 155.886L224.185 155.783ZM224.889 162.042C225.407 162.087 225.767 162.026 225.968 161.857C226.174 161.685 226.299 161.343 226.344 160.833C226.389 160.318 226.325 159.96 226.152 159.759C225.983 159.558 225.64 159.434 225.121 159.389L223.746 159.269C223.228 159.223 222.866 159.285 222.661 159.453C222.46 159.622 222.337 159.964 222.292 160.478C222.247 160.989 222.309 161.346 222.477 161.552C222.65 161.753 222.996 161.876 223.514 161.922L224.889 162.042ZM229.705 163.484C229.383 163.456 229.236 163.281 229.264 162.96L229.291 162.658C229.318 162.345 229.493 162.202 229.814 162.23L230.104 162.255C230.409 162.282 230.548 162.452 230.521 162.766L230.494 163.067C230.466 163.389 230.299 163.536 229.994 163.509L229.705 163.484ZM230.053 159.505C229.731 159.476 229.584 159.302 229.613 158.98L229.639 158.679C229.666 158.365 229.841 158.222 230.162 158.25L230.452 158.276C230.757 158.303 230.896 158.473 230.869 158.786L230.843 159.088C230.814 159.409 230.648 159.557 230.342 159.53L230.053 159.505ZM235.223 163.955C234.302 163.874 233.64 163.596 233.236 163.119C232.837 162.638 232.678 161.938 232.758 161.017L233.002 158.232C233.083 157.303 233.362 156.639 233.838 156.239C234.319 155.84 235.019 155.686 235.938 155.779L236.662 155.842C237.586 155.923 238.249 156.202 238.648 156.678C239.048 157.151 239.208 157.851 239.127 158.78L238.884 161.553C238.804 162.474 238.525 163.136 238.048 163.54C237.572 163.939 236.871 164.099 235.947 164.018L235.223 163.955ZM235.312 162.942L236.035 163.005C236.465 163.043 236.807 163.02 237.062 162.937C237.316 162.854 237.504 162.694 237.626 162.458C237.752 162.222 237.834 161.891 237.871 161.465L238.114 158.691C238.151 158.261 238.129 157.919 238.046 157.664C237.967 157.41 237.809 157.222 237.572 157.1C237.336 156.974 237.003 156.893 236.573 156.855L235.85 156.792C235.424 156.746 235.085 156.763 234.831 156.842C234.577 156.917 234.387 157.075 234.261 157.315C234.135 157.551 234.053 157.886 234.015 158.32L233.771 161.106C233.734 161.532 233.755 161.872 233.834 162.126C233.917 162.38 234.076 162.57 234.312 162.696C234.548 162.822 234.881 162.904 235.312 162.942ZM235.746 160.477C235.424 160.448 235.278 160.274 235.306 159.952L235.332 159.651C235.36 159.337 235.534 159.194 235.856 159.222L236.145 159.248C236.451 159.275 236.59 159.445 236.562 159.758L236.536 160.06C236.508 160.381 236.341 160.529 236.035 160.502L235.746 160.477ZM243.466 164.676C242.546 164.595 241.884 164.317 241.48 163.84C241.08 163.359 240.921 162.659 241.002 161.738L241.245 158.953C241.326 158.024 241.605 157.36 242.082 156.96C242.562 156.561 243.262 156.407 244.182 156.5L244.905 156.563C245.83 156.644 246.492 156.923 246.892 157.399C247.292 157.872 247.451 158.572 247.37 159.501L247.128 162.274C247.047 163.195 246.768 163.857 246.291 164.261C245.815 164.661 245.114 164.82 244.19 164.739L243.466 164.676ZM243.555 163.663L244.279 163.726C244.709 163.764 245.051 163.741 245.305 163.658C245.56 163.575 245.748 163.415 245.87 163.179C245.996 162.943 246.077 162.612 246.115 162.186L246.357 159.412C246.395 158.982 246.372 158.64 246.289 158.385C246.21 158.131 246.052 157.944 245.816 157.822C245.58 157.696 245.247 157.614 244.817 157.576L244.093 157.513C243.668 157.468 243.328 157.484 243.074 157.563C242.82 157.638 242.63 157.796 242.504 158.036C242.378 158.272 242.296 158.607 242.258 159.041L242.014 161.827C241.977 162.253 241.998 162.593 242.077 162.847C242.16 163.101 242.32 163.292 242.556 163.418C242.792 163.544 243.125 163.625 243.555 163.663ZM243.989 161.198C243.668 161.17 243.521 160.995 243.549 160.673L243.576 160.372C243.603 160.058 243.778 159.916 244.099 159.944L244.389 159.969C244.694 159.996 244.833 160.166 244.806 160.479L244.779 160.781C244.751 161.102 244.584 161.25 244.279 161.223L243.989 161.198ZM49.4164 161.837C49.0949 161.809 48.9517 161.594 48.9868 161.192L49.565 154.584C49.6002 154.182 49.7785 153.995 50.1001 154.023L52.3672 154.221C53.4244 154.314 54.1685 154.535 54.5997 154.885C55.0352 155.23 55.2219 155.759 55.1596 156.471C55.1329 156.776 55.072 157.032 54.977 157.238C54.886 157.445 54.7637 157.617 54.61 157.753C54.9084 157.953 55.1214 158.227 55.249 158.575C55.3766 158.922 55.4192 159.337 55.377 159.819L55.357 160.048C55.3071 160.619 55.169 161.063 54.9429 161.379C54.7167 161.695 54.3702 161.906 53.9033 162.011C53.4364 162.116 52.8171 162.135 52.0453 162.067L49.4164 161.837ZM50.0357 160.871L52.1339 161.054C52.5761 161.093 52.9515 161.108 53.2602 161.098C53.5688 161.089 53.8004 161.034 53.955 160.934C54.084 160.848 54.1757 160.727 54.2299 160.569C54.2845 160.408 54.3226 160.205 54.344 159.96L54.3609 159.767C54.3838 159.505 54.3803 159.29 54.3505 159.122C54.3211 158.949 54.2459 158.813 54.125 158.713C54.0015 158.597 53.8165 158.512 53.5701 158.458C53.3277 158.404 53.0015 158.36 52.5915 158.324L50.2762 158.121L50.0357 160.871ZM50.3648 157.108L52.1013 157.26C52.6239 157.306 53.0281 157.315 53.3141 157.287C53.6004 157.256 53.804 157.174 53.9248 157.043C54.046 156.908 54.1182 156.708 54.1414 156.442C54.1643 156.181 54.1276 155.975 54.0314 155.825C53.9392 155.675 53.7547 155.562 53.4778 155.485C53.2014 155.404 52.7999 155.341 52.2733 155.295L50.5368 155.143L50.3648 157.108ZM56.5982 162.466L57.053 157.268C57.0874 156.874 57.2735 156.692 57.6111 156.722C57.9488 156.751 58.1004 156.963 58.0659 157.357L57.9129 159.105L60.5056 159.332C60.9679 159.373 61.3518 159.475 61.6574 159.64C61.9674 159.8 62.1955 160.017 62.3419 160.289C62.4885 160.557 62.5457 160.876 62.5133 161.245C62.4813 161.611 62.3697 161.915 62.1783 162.158C61.9914 162.397 61.7313 162.568 61.3981 162.673C61.0649 162.777 60.6669 162.813 60.2039 162.781L56.5982 162.466ZM57.6998 161.541L60.184 161.759C60.5096 161.787 60.8025 161.772 61.0628 161.714C61.3274 161.652 61.4715 161.486 61.4951 161.217C61.5144 160.996 61.4806 160.827 61.3936 160.71C61.311 160.589 61.1769 160.503 60.9911 160.45C60.8094 160.398 60.5818 160.36 60.3085 160.336L57.8243 160.118L57.6998 161.541ZM63.1593 163.307C62.8296 163.278 62.6817 163.071 62.7155 162.685L63.1586 157.62C63.1744 157.439 63.2311 157.3 63.3287 157.204C63.4306 157.103 63.56 157.06 63.7168 157.074C63.8735 157.087 63.9914 157.152 64.0703 157.268C64.1536 157.381 64.1874 157.528 64.1716 157.709L63.7284 162.774C63.6947 163.159 63.505 163.337 63.1593 163.307ZM65.505 163.379C65.3483 163.365 65.2197 163.307 65.1192 163.205C65.0224 163.107 64.9802 162.988 64.9925 162.848C64.9989 162.775 65.0187 162.71 65.0521 162.652C65.0859 162.591 65.1312 162.536 65.188 162.488L67.3876 160.542L65.5605 158.231C65.4625 158.101 65.4195 157.968 65.4314 157.831C65.4437 157.69 65.5038 157.582 65.6117 157.507C65.7239 157.427 65.8585 157.395 66.0152 157.408C66.184 157.423 66.3138 157.491 66.4044 157.612L68.1982 159.957L70.3658 157.959C70.4842 157.856 70.6218 157.811 70.7785 157.825C70.9313 157.838 71.054 157.894 71.1468 157.991C71.2399 158.084 71.2803 158.201 71.268 158.342C71.256 158.478 71.1905 158.602 71.0714 158.713L68.8708 160.672L70.693 162.97C70.7407 163.027 70.7757 163.088 70.7983 163.155C70.8251 163.218 70.8354 163.286 70.8291 163.358C70.8171 163.495 70.7549 163.605 70.6423 163.688C70.5297 163.772 70.397 163.807 70.2442 163.793C70.0834 163.779 69.9577 163.711 69.8671 163.59L68.0853 161.247L65.9057 163.243C65.7913 163.347 65.6578 163.392 65.505 163.379ZM75.0266 164.078C74.2548 164.01 73.6458 163.888 73.1995 163.711C72.7576 163.531 72.4502 163.271 72.2774 162.932C72.1089 162.589 72.0489 162.141 72.0974 161.586L72.2082 160.32C72.2567 159.765 72.3936 159.335 72.6187 159.031C72.8481 158.723 73.1959 158.521 73.6621 158.424C74.1327 158.323 74.7538 158.306 75.5256 158.374L75.8753 158.405C76.6471 158.472 77.254 158.596 77.6959 158.777C78.1378 158.957 78.443 159.219 78.6115 159.561C78.7803 159.9 78.8406 160.345 78.7924 160.896L78.6817 162.162C78.6335 162.713 78.4967 163.142 78.2712 163.45C78.0461 163.755 77.7003 163.957 77.2338 164.058C76.7672 164.159 76.1481 164.176 75.3763 164.108L75.0266 164.078ZM75.1152 163.065L75.4649 163.096C76.0679 163.148 76.5205 163.16 76.8229 163.129C77.1297 163.095 77.339 162.994 77.451 162.826C77.5673 162.654 77.6409 162.391 77.6719 162.037L77.7763 160.843C77.8076 160.485 77.7807 160.214 77.6957 160.028C77.6147 159.843 77.426 159.709 77.1294 159.626C76.8372 159.54 76.3897 159.47 75.7867 159.418L75.437 159.387C74.83 159.334 74.3732 159.324 74.0664 159.358C73.76 159.388 73.5488 159.487 73.4329 159.655C73.3209 159.824 73.2493 160.087 73.218 160.444L73.1136 161.638C73.0826 161.992 73.1075 162.263 73.1881 162.453C73.2731 162.638 73.4637 162.775 73.7599 162.861C74.0565 162.944 74.5082 163.012 75.1152 163.065ZM79.6838 165.603C79.3461 165.574 79.1953 165.354 79.2311 164.944L79.2807 164.377C79.3366 163.738 79.6615 163.451 80.2554 163.515L80.5689 163.542L80.0051 163.736C81.0036 162.462 81.5816 160.856 81.739 158.918L85.5376 159.25L85.1272 163.941L85.4528 163.969C85.9914 164.016 86.2333 164.354 86.1785 164.981L86.1289 165.547C86.093 165.957 85.9062 166.148 85.5686 166.118C85.2309 166.089 85.0801 165.869 85.1159 165.459L85.1592 164.964L80.2873 164.538L80.2441 165.033C80.2082 165.443 80.0214 165.633 79.6838 165.603ZM81.3347 163.609L84.0781 163.849L84.3999 160.171L82.7478 160.027C82.5845 161.337 82.1135 162.531 81.3347 163.609ZM87.7628 165.277C87.4251 165.248 87.2732 165.04 87.3069 164.654L87.7184 159.951C87.7528 159.557 87.9309 159.374 88.2524 159.402C88.6062 159.433 88.7658 159.646 88.7313 160.04L88.5847 161.716L92.6606 162.072L92.8073 160.396C92.8417 160.002 93.0278 159.82 93.3655 159.85C93.7031 159.879 93.8547 160.091 93.8202 160.485L93.4088 165.188C93.375 165.574 93.1893 165.752 92.8517 165.722C92.514 165.693 92.3621 165.485 92.3958 165.099L92.572 163.085L88.4961 162.729L88.3199 164.743C88.2861 165.129 88.1004 165.307 87.7628 165.277ZM97.9788 166.086C97.207 166.018 96.5979 165.896 96.1517 165.72C95.7097 165.539 95.4024 165.279 95.2295 164.94C95.061 164.597 95.0011 164.149 95.0496 163.594L95.1604 162.328C95.2089 161.773 95.3457 161.343 95.5708 161.039C95.8003 160.731 96.1481 160.529 96.6143 160.432C97.0848 160.331 97.706 160.315 98.4778 160.382L98.8275 160.413C99.5993 160.48 100.206 160.604 100.648 160.785C101.09 160.965 101.395 161.227 101.564 161.569C101.732 161.908 101.793 162.353 101.745 162.904L101.634 164.17C101.586 164.721 101.449 165.15 101.223 165.458C100.998 165.763 100.652 165.965 100.186 166.066C99.7194 166.167 99.1002 166.184 98.3285 166.117L97.9788 166.086ZM98.0674 165.073L98.4171 165.104C99.02 165.156 99.4727 165.168 99.7751 165.137C100.082 165.103 100.291 165.002 100.403 164.834C100.519 164.662 100.593 164.399 100.624 164.045L100.728 162.851C100.76 162.493 100.733 162.222 100.648 162.036C100.567 161.851 100.378 161.717 100.082 161.634C99.7894 161.548 99.3418 161.478 98.7389 161.426L98.3892 161.395C97.7822 161.342 97.3253 161.332 97.0186 161.366C96.7122 161.396 96.501 161.495 96.385 161.663C96.2731 161.832 96.2015 162.095 96.1702 162.452L96.0657 163.646C96.0348 164 96.0596 164.272 96.1403 164.461C96.2253 164.647 96.4159 164.783 96.7121 164.869C97.0086 164.952 97.4604 165.02 98.0674 165.073ZM108.538 167.095C108.2 167.065 108.05 166.842 108.086 166.423L108.412 162.697L103.897 166.604L102.95 166.521L103.405 161.323C103.439 160.93 103.625 160.747 103.963 160.777C104.301 160.806 104.451 161.03 104.415 161.448L104.084 165.223L108.641 161.271L109.551 161.351L109.096 166.548C109.062 166.942 108.876 167.124 108.538 167.095ZM105.826 160.733C105.352 160.692 105.029 160.542 104.857 160.284C104.685 160.022 104.625 159.599 104.676 159.017L104.721 158.498L105.734 158.587L105.672 159.298C105.656 159.479 105.666 159.593 105.703 159.641C105.739 159.685 105.842 159.714 106.011 159.729L107.241 159.836C107.406 159.851 107.508 159.839 107.548 159.802C107.592 159.762 107.622 159.651 107.638 159.47L107.7 158.759L108.713 158.847L108.667 159.366C108.616 159.957 108.483 160.364 108.269 160.589C108.059 160.809 107.715 160.899 107.237 160.857L105.826 160.733ZM111.392 167.187C111.07 167.158 110.923 166.984 110.952 166.662L110.978 166.36C111.005 166.047 111.18 165.904 111.502 165.932L111.791 165.958C112.096 165.984 112.235 166.155 112.208 166.468L112.182 166.77C112.154 167.091 111.987 167.239 111.681 167.212L111.392 167.187ZM111.74 163.207C111.418 163.179 111.272 163.004 111.3 162.682L111.326 162.381C111.354 162.067 111.528 161.925 111.85 161.953L112.139 161.978C112.445 162.005 112.584 162.175 112.556 162.489L112.53 162.79C112.502 163.112 112.335 163.259 112.029 163.232L111.74 163.207ZM118.355 167.869C118.034 167.841 117.891 167.625 117.926 167.224L118.504 160.615C118.539 160.213 118.717 160.026 119.039 160.054L121.306 160.253C122.363 160.345 123.107 160.566 123.539 160.916C123.974 161.262 124.161 161.791 124.099 162.502C124.072 162.808 124.011 163.063 123.916 163.27C123.825 163.477 123.703 163.648 123.549 163.785C123.847 163.985 124.06 164.259 124.188 164.606C124.315 164.953 124.358 165.368 124.316 165.851L124.296 166.08C124.246 166.65 124.108 167.094 123.882 167.41C123.656 167.727 123.309 167.938 122.842 168.043C122.375 168.147 121.756 168.166 120.984 168.099L118.355 167.869ZM118.975 166.902L121.073 167.086C121.515 167.124 121.89 167.139 122.199 167.13C122.508 167.12 122.739 167.065 122.894 166.966C123.023 166.88 123.115 166.758 123.169 166.601C123.223 166.439 123.262 166.236 123.283 165.991L123.3 165.798C123.323 165.537 123.319 165.322 123.289 165.153C123.26 164.98 123.185 164.844 123.064 164.745C122.94 164.628 122.755 164.543 122.509 164.489C122.267 164.436 121.94 164.391 121.53 164.355L119.215 164.153L118.975 166.902ZM119.304 163.14L121.04 163.292C121.563 163.337 121.967 163.346 122.253 163.319C122.539 163.287 122.743 163.206 122.864 163.074C122.985 162.939 123.057 162.739 123.08 162.474C123.103 162.212 123.067 162.007 122.97 161.857C122.878 161.707 122.694 161.593 122.417 161.516C122.14 161.436 121.739 161.372 121.212 161.326L119.476 161.174L119.304 163.14ZM128.48 168.754C127.708 168.687 127.099 168.565 126.652 168.388C126.211 168.208 125.903 167.948 125.73 167.609C125.562 167.266 125.502 166.817 125.55 166.262L125.661 164.996C125.71 164.441 125.847 164.012 126.072 163.708C126.301 163.4 126.649 163.197 127.115 163.1C127.586 163 128.207 162.983 128.979 163.051L129.328 163.081C130.1 163.149 130.707 163.273 131.149 163.453C131.591 163.633 131.896 163.895 132.064 164.238C132.233 164.577 132.294 165.021 132.245 165.572L132.135 166.838C132.086 167.389 131.95 167.819 131.724 168.127C131.499 168.431 131.153 168.634 130.687 168.735C130.22 168.836 129.601 168.853 128.829 168.785L128.48 168.754ZM128.568 167.741L128.918 167.772C129.521 167.825 129.974 167.836 130.276 167.806C130.583 167.772 130.792 167.671 130.904 167.502C131.02 167.33 131.094 167.067 131.125 166.714L131.229 165.52C131.261 165.162 131.234 164.89 131.149 164.705C131.068 164.519 130.879 164.385 130.582 164.303C130.29 164.216 129.843 164.147 129.24 164.094L128.89 164.063C128.283 164.01 127.826 164.001 127.519 164.035C127.213 164.065 127.002 164.164 126.886 164.332C126.774 164.5 126.702 164.763 126.671 165.121L126.567 166.315C126.536 166.668 126.56 166.94 126.641 167.129C126.726 167.315 126.917 167.451 127.213 167.538C127.509 167.62 127.961 167.688 128.568 167.741ZM136.393 169.447C135.622 169.379 135.013 169.257 134.566 169.08C134.124 168.9 133.817 168.64 133.644 168.301C133.476 167.958 133.416 167.509 133.464 166.955L133.575 165.688C133.623 165.134 133.76 164.704 133.985 164.4C134.215 164.092 134.563 163.889 135.029 163.792C135.499 163.692 136.121 163.675 136.892 163.743L138.593 163.892C138.91 163.919 139.167 163.997 139.362 164.123C139.562 164.246 139.703 164.422 139.784 164.652C139.865 164.878 139.891 165.16 139.862 165.497C139.843 165.714 139.784 165.877 139.685 165.986C139.591 166.095 139.461 166.143 139.296 166.128C139.135 166.114 139.016 166.049 138.937 165.933C138.858 165.812 138.827 165.654 138.845 165.457C138.862 165.256 138.842 165.116 138.784 165.038C138.726 164.96 138.605 164.913 138.42 164.897L136.804 164.756C136.197 164.703 135.74 164.693 135.433 164.727C135.127 164.757 134.916 164.856 134.8 165.024C134.688 165.192 134.616 165.456 134.585 165.813L134.48 167.007C134.449 167.361 134.474 167.632 134.555 167.822C134.64 168.007 134.83 168.144 135.127 168.23C135.423 168.313 135.875 168.381 136.482 168.434L138.098 168.575C138.287 168.592 138.414 168.568 138.481 168.505C138.551 168.443 138.595 168.311 138.612 168.11C138.629 167.921 138.685 167.772 138.779 167.663C138.874 167.55 139.002 167.5 139.163 167.514C139.32 167.528 139.439 167.597 139.521 167.722C139.608 167.843 139.641 168.018 139.621 168.247C139.592 168.58 139.517 168.853 139.398 169.066C139.278 169.274 139.109 169.421 138.891 169.507C138.677 169.594 138.411 169.623 138.094 169.596L136.393 169.447ZM141.451 169.974C141.302 169.961 141.186 169.899 141.103 169.786C141.024 169.674 140.991 169.537 141.005 169.376L141.422 164.613C141.437 164.444 141.497 164.314 141.602 164.222C141.707 164.13 141.84 164.091 142.001 164.105C142.146 164.117 142.258 164.18 142.337 164.292C142.417 164.4 142.449 164.537 142.435 164.702L142.271 166.571L143.429 166.672C143.509 166.679 143.611 166.627 143.734 166.517C143.861 166.406 144.045 166.202 144.286 165.903C144.472 165.68 144.679 165.457 144.91 165.234C145.144 165.012 145.433 164.828 145.778 164.684C146.127 164.541 146.504 164.487 146.91 164.522C147.099 164.539 147.246 164.596 147.351 164.694C147.459 164.793 147.507 164.923 147.493 165.083C147.478 165.252 147.413 165.374 147.297 165.449C147.185 165.524 147.026 165.553 146.821 165.535C146.612 165.517 146.4 165.579 146.185 165.722C145.974 165.866 145.708 166.128 145.387 166.509C145.306 166.603 145.228 166.692 145.152 166.774C145.08 166.853 145.011 166.926 144.944 166.993C144.882 167.056 144.82 167.114 144.759 167.165C145.06 167.329 145.327 167.543 145.559 167.806C145.796 168.07 145.947 168.33 146.014 168.587C146.088 168.845 146.166 169.042 146.247 169.179C146.329 169.316 146.407 169.387 146.484 169.394C146.673 169.41 146.819 169.47 146.924 169.572C147.032 169.675 147.08 169.803 147.067 169.955C147.037 170.293 146.813 170.443 146.395 170.407C146.114 170.382 145.874 170.319 145.677 170.216C145.479 170.114 145.328 169.971 145.222 169.788C145.116 169.612 145.031 169.443 144.969 169.28C144.906 169.116 144.832 168.95 144.745 168.78C144.659 168.606 144.527 168.427 144.349 168.241C144.042 167.902 143.481 167.697 142.665 167.626L142.183 167.584L142.017 169.477C142.003 169.642 141.945 169.768 141.844 169.857C141.743 169.949 141.612 169.988 141.451 169.974ZM148.603 172.727C148.273 172.698 148.127 172.478 148.162 172.068L148.756 165.279C148.79 164.893 148.98 164.715 149.326 164.746C149.506 164.761 149.626 164.829 149.685 164.947C149.747 165.066 149.766 165.262 149.743 165.535L149.711 165.897L149.551 165.64C149.829 165.385 150.166 165.214 150.562 165.127C150.963 165.037 151.416 165.014 151.923 165.058L152.273 165.088C153.044 165.156 153.651 165.28 154.093 165.46C154.535 165.641 154.84 165.902 155.009 166.245C155.178 166.584 155.238 167.029 155.19 167.58L155.079 168.846C155.031 169.396 154.894 169.826 154.669 170.134C154.443 170.439 154.1 170.641 153.637 170.743C153.179 170.844 152.57 170.862 151.81 170.796L149.314 170.577L149.175 172.157C149.14 172.567 148.949 172.757 148.603 172.727ZM149.402 169.564L151.898 169.783C152.493 169.835 152.94 169.845 153.238 169.815C153.537 169.78 153.742 169.679 153.854 169.51C153.967 169.338 154.038 169.075 154.069 168.721L154.174 167.527C154.205 167.169 154.178 166.898 154.093 166.712C154.012 166.527 153.823 166.393 153.527 166.31C153.235 166.224 152.787 166.154 152.184 166.101L151.834 166.071C151.107 166.007 150.559 166.109 150.191 166.377C149.828 166.641 149.619 167.084 149.565 167.707L149.402 169.564ZM159.334 171.454C158.562 171.386 157.953 171.264 157.507 171.087C157.065 170.907 156.757 170.647 156.584 170.308C156.416 169.965 156.356 169.516 156.405 168.962L156.515 167.696C156.564 167.141 156.701 166.711 156.926 166.407C157.155 166.099 157.503 165.896 157.969 165.8C158.44 165.699 159.061 165.682 159.833 165.75L160.182 165.78C160.954 165.848 161.561 165.972 162.003 166.152C162.445 166.333 162.75 166.594 162.919 166.937C163.087 167.276 163.148 167.721 163.1 168.272L163.043 168.923L157.471 168.435L157.421 169.014C157.39 169.368 157.415 169.639 157.495 169.829C157.58 170.014 157.771 170.151 158.067 170.237C158.364 170.32 158.815 170.388 159.422 170.441L161.279 170.603C161.468 170.62 161.596 170.597 161.662 170.534C161.733 170.471 161.776 170.339 161.794 170.138C161.812 169.937 161.87 169.784 161.968 169.679C162.07 169.575 162.202 169.53 162.362 169.544C162.527 169.562 162.646 169.635 162.72 169.763C162.794 169.887 162.822 170.058 162.803 170.275C162.774 170.608 162.699 170.881 162.579 171.094C162.46 171.302 162.291 171.449 162.073 171.535C161.859 171.622 161.593 171.651 161.275 171.624L159.334 171.454ZM157.566 167.423L162.112 167.821C162.099 167.463 161.976 167.225 161.743 167.108C161.603 167.039 161.392 166.978 161.109 166.925C160.83 166.872 160.492 166.828 160.094 166.793L159.744 166.763C159.31 166.725 158.949 166.709 158.661 166.717C158.377 166.72 158.166 166.746 158.028 166.795C157.778 166.874 157.624 167.084 157.566 167.423ZM167.189 172.141C166.417 172.074 165.808 171.951 165.361 171.775C164.92 171.594 164.612 171.334 164.439 170.995C164.271 170.652 164.211 170.204 164.259 169.649L164.37 168.383C164.419 167.828 164.556 167.398 164.781 167.094C165.01 166.786 165.358 166.584 165.824 166.487C166.295 166.386 166.916 166.37 167.688 166.437L169.388 166.586C169.705 166.614 169.962 166.691 170.157 166.817C170.357 166.94 170.498 167.116 170.579 167.346C170.661 167.572 170.687 167.854 170.657 168.192C170.638 168.409 170.579 168.572 170.481 168.68C170.386 168.79 170.256 168.837 170.091 168.823C169.931 168.808 169.811 168.743 169.732 168.627C169.653 168.507 169.623 168.348 169.64 168.151C169.657 167.95 169.637 167.811 169.579 167.733C169.521 167.655 169.4 167.608 169.215 167.591L167.599 167.45C166.992 167.397 166.535 167.387 166.228 167.421C165.922 167.451 165.711 167.55 165.595 167.718C165.483 167.887 165.411 168.15 165.38 168.508L165.276 169.701C165.245 170.055 165.269 170.327 165.35 170.516C165.435 170.702 165.626 170.838 165.922 170.924C166.218 171.007 166.67 171.075 167.277 171.128L168.893 171.269C169.082 171.286 169.21 171.263 169.276 171.2C169.346 171.137 169.39 171.005 169.408 170.804C169.424 170.615 169.48 170.466 169.574 170.357C169.669 170.244 169.797 170.194 169.958 170.208C170.115 170.222 170.234 170.291 170.317 170.416C170.403 170.537 170.436 170.712 170.416 170.941C170.387 171.275 170.313 171.548 170.193 171.76C170.073 171.968 169.905 172.115 169.686 172.202C169.472 172.288 169.206 172.318 168.889 172.29L167.189 172.141ZM174.714 172.799C173.942 172.732 173.333 172.61 172.887 172.433C172.445 172.253 172.137 171.993 171.964 171.654C171.796 171.311 171.736 170.862 171.784 170.307L171.895 169.041C171.944 168.486 172.081 168.057 172.306 167.752C172.535 167.444 172.883 167.242 173.349 167.145C173.82 167.044 174.441 167.028 175.213 167.095L175.562 167.126C176.334 167.194 176.941 167.318 177.383 167.498C177.825 167.678 178.13 167.94 178.299 168.283C178.467 168.622 178.528 169.066 178.479 169.617L178.423 170.268L172.851 169.781L172.801 170.36C172.77 170.713 172.795 170.985 172.875 171.174C172.96 171.36 173.151 171.496 173.447 171.583C173.744 171.665 174.195 171.733 174.802 171.786L176.659 171.949C176.848 171.965 176.976 171.942 177.042 171.879C177.112 171.816 177.156 171.685 177.174 171.484C177.192 171.283 177.249 171.13 177.348 171.025C177.45 170.92 177.582 170.875 177.742 170.889C177.907 170.908 178.026 170.981 178.1 171.109C178.174 171.233 178.202 171.403 178.183 171.62C178.154 171.954 178.079 172.227 177.959 172.439C177.84 172.648 177.671 172.795 177.453 172.881C177.239 172.968 176.973 172.997 176.655 172.969L174.714 172.799ZM172.946 168.768L177.492 169.166C177.479 168.809 177.356 168.571 177.123 168.453C176.983 168.385 176.772 168.323 176.489 168.27C176.21 168.218 175.872 168.174 175.474 168.139L175.124 168.108C174.69 168.07 174.329 168.055 174.041 168.062C173.757 168.066 173.546 168.092 173.408 168.141C173.158 168.22 173.004 168.429 172.946 168.768ZM180.113 173.357C179.775 173.327 179.624 173.12 179.657 172.734L180.069 168.031C180.103 167.637 180.281 167.454 180.603 167.482C180.957 167.513 181.116 167.725 181.082 168.119L180.935 169.796L185.011 170.152L185.158 168.476C185.192 168.082 185.378 167.9 185.716 167.929C186.053 167.959 186.205 168.171 186.171 168.565L185.759 173.268C185.725 173.653 185.54 173.832 185.202 173.802C184.864 173.773 184.712 173.565 184.746 173.179L184.922 171.165L180.846 170.808L180.67 172.822C180.636 173.208 180.451 173.386 180.113 173.357ZM187.387 173.908L187.841 168.711C187.876 168.317 188.062 168.135 188.4 168.164C188.737 168.194 188.889 168.405 188.854 168.799L188.701 170.548L191.294 170.775C191.756 170.815 192.14 170.918 192.446 171.082C192.756 171.243 192.984 171.459 193.13 171.731C193.277 171.999 193.334 172.318 193.302 172.688C193.27 173.054 193.158 173.358 192.967 173.6C192.78 173.839 192.52 174.011 192.187 174.115C191.853 174.22 191.455 174.256 190.992 174.224L187.387 173.908ZM188.488 172.984L190.972 173.201C191.306 173.23 191.601 173.216 191.857 173.157C192.118 173.095 192.26 172.929 192.284 172.66C192.303 172.439 192.269 172.27 192.182 172.153C192.1 172.032 191.967 171.945 191.786 171.893C191.604 171.841 191.374 171.802 191.097 171.778L188.613 171.561L188.488 172.984ZM197.289 174.774C196.517 174.707 195.908 174.585 195.462 174.408C195.02 174.228 194.713 173.968 194.54 173.629C194.371 173.286 194.311 172.837 194.36 172.282L194.471 171.016C194.519 170.461 194.656 170.032 194.881 169.728C195.111 169.42 195.458 169.217 195.925 169.12C196.395 169.02 197.016 169.003 197.788 169.071L198.138 169.101C198.91 169.169 199.516 169.293 199.958 169.473C200.4 169.654 200.705 169.915 200.874 170.258C201.043 170.597 201.103 171.042 201.055 171.592L200.998 172.243L195.427 171.756L195.376 172.335C195.345 172.689 195.37 172.96 195.451 173.149C195.536 173.335 195.726 173.471 196.022 173.558C196.319 173.641 196.771 173.708 197.378 173.762L199.235 173.924C199.424 173.941 199.551 173.917 199.617 173.854C199.688 173.791 199.732 173.66 199.749 173.459C199.767 173.258 199.825 173.105 199.923 173C200.025 172.895 200.157 172.85 200.318 172.864C200.482 172.883 200.601 172.956 200.675 173.084C200.749 173.208 200.777 173.378 200.758 173.596C200.729 173.929 200.654 174.202 200.535 174.414C200.415 174.623 200.246 174.77 200.028 174.856C199.814 174.943 199.548 174.972 199.23 174.944L197.289 174.774ZM195.521 170.744L200.067 171.141C200.054 170.784 199.931 170.546 199.698 170.429C199.559 170.36 199.347 170.299 199.064 170.245C198.785 170.193 198.447 170.149 198.049 170.114L197.699 170.084C197.265 170.046 196.904 170.03 196.616 170.037C196.332 170.041 196.121 170.067 195.983 170.116C195.733 170.195 195.579 170.404 195.521 170.744Z" fill="white"/>
<path d="M26.7016 137.1C21.2026 136.619 16.3592 140.693 15.8781 146.192C15.397 151.691 19.4595 156.543 24.9585 157.024C30.4675 157.506 35.3209 153.434 35.802 147.935C36.2831 142.436 32.2106 137.582 26.7016 137.1ZM25.1428 155.033C20.7396 154.648 17.4853 150.769 17.8705 146.366C18.2557 141.963 22.1341 138.708 26.5373 139.094C30.9405 139.479 34.1948 143.357 33.8096 147.761C33.4244 152.164 29.546 155.418 25.1428 155.033Z" fill="white"/>
<path d="M26.7739 142.126L25.2796 141.995L24.7567 147.972L29.7122 151.568L30.5665 150.408L26.3163 147.356L26.7739 142.126Z" fill="white"/>
</svg>
